<?xml version="1.0" standalone="no"?>
<!DOCTYPE svg PUBLIC "-//W3C//DTD SVG 20010904//EN"
 "http://www.w3.org/TR/2001/REC-SVG-20010904/DTD/svg10.dtd">
<svg version="1.0" xmlns="http://www.w3.org/2000/svg"
 width="600.000000pt" height="600.000000pt" viewBox="0 0 600.000000 600.000000"
 preserveAspectRatio="xMidYMid meet">
<metadata>
Created by potrace 1.14, written by Peter Selinger 2001-2017
</metadata>
<g transform="translate(0.000000,600.000000) scale(0.100000,-0.100000)"
fill="#000000" stroke="none">
<path d="M0 5084 l0 -915 23 7 c12 4 36 18 52 32 17 14 45 31 63 39 41 17 52
45 53 136 1 40 3 63 6 52 3 -11 9 -24 14 -30 5 -5 9 -16 9 -25 0 -9 5 -21 11
-27 12 -12 39 -7 39 7 0 30 298 320 329 320 5 0 20 15 32 33 13 17 27 35 32
38 4 3 14 28 22 55 7 27 14 41 14 32 2 -32 22 -29 69 9 57 47 154 111 187 123
13 5 36 28 51 51 14 23 46 61 70 84 24 24 44 48 44 53 0 26 213 240 305 307
22 16 45 34 50 39 6 6 19 16 30 22 24 14 31 34 46 149 11 86 37 191 45 182 2
-2 4 -24 5 -50 3 -69 19 -82 19 -14 0 31 3 57 8 57 4 0 18 -34 31 -75 22 -71
44 -105 58 -92 3 4 10 55 15 114 10 129 13 141 22 88 20 -123 44 -156 85 -118
11 10 45 34 76 53 32 19 96 60 144 91 153 99 261 89 -973 89 l-1086 0 0 -916z
m657 129 c-3 -10 -5 -2 -5 17 0 19 2 27 5 18 2 -10 2 -26 0 -35z m22 -168 c0
-27 -2 -35 -8 -25 -9 14 -16 119 -11 150 4 21 18 -76 19 -125z"/>
<path d="M2350 5932 c-114 -88 -330 -309 -330 -336 1 -12 7 -46 14 -76 8 -30
15 -62 17 -70 2 -8 -2 -15 -10 -15 -16 0 -39 56 -40 96 -2 52 -24 53 -79 4
-47 -42 -50 -48 -45 -80 6 -38 -9 -48 -26 -17 -8 13 -14 15 -28 6 -24 -15 -28
-79 -9 -145 23 -77 5 -79 -39 -4 -37 63 -65 83 -65 47 0 -44 89 -277 162 -424
26 -53 48 -101 48 -106 0 -6 3 -12 8 -14 4 -1 23 -28 42 -58 72 -116 213 -290
225 -278 3 3 -1 21 -11 39 -25 49 -100 260 -153 434 -13 41 -24 115 -18 115 3
0 19 -26 35 -57 92 -180 193 -341 266 -419 l42 -47 115 13 c63 6 174 10 248 8
121 -3 134 -1 136 14 2 10 10 25 19 34 9 8 21 25 28 37 14 28 99 129 116 140
16 10 9 63 -18 147 -9 30 -40 150 -69 265 -69 283 -71 292 -71 321 0 14 -4 33
-9 42 -4 9 -11 48 -14 85 -6 60 -5 66 8 53 8 -8 15 -26 15 -40 0 -14 4 -35 9
-48 5 -13 15 -50 21 -83 26 -126 140 -503 184 -607 15 -35 36 -59 36 -41 0 4
55 51 121 103 67 52 142 113 168 135 25 23 64 54 86 70 46 34 58 48 80 93 9
17 20 32 25 32 6 0 10 7 10 16 0 9 7 22 17 29 10 8 18 32 21 69 5 58 15 72 26
34 5 -22 6 -21 31 12 14 18 28 36 33 39 10 7 156 174 242 276 36 42 102 107
148 143 45 36 82 69 82 74 0 4 -397 8 -882 7 l-883 -1 -85 -66z"/>
<path d="M4353 5941 c-29 -31 -67 -76 -84 -101 -18 -25 -48 -63 -67 -84 l-35
-39 6 -99 c3 -54 2 -98 -1 -98 -4 0 -8 24 -10 53 -1 28 -10 67 -18 85 l-16 34
-161 -160 c-177 -175 -229 -222 -246 -222 -6 0 -11 -6 -11 -13 0 -7 -6 -22
-14 -33 -13 -17 -17 -17 -37 -5 -16 9 -24 10 -27 3 -2 -6 -19 -16 -39 -23 -27
-9 -34 -15 -30 -30 3 -11 -2 -24 -11 -32 -10 -6 -26 -30 -37 -52 -20 -40 -74
-125 -85 -135 -3 -3 -38 -50 -77 -105 -39 -55 -99 -129 -133 -164 -61 -63 -69
-86 -33 -97 128 -40 262 -137 419 -304 32 -33 46 -42 54 -34 6 6 14 53 17 105
3 52 11 104 19 116 11 18 11 22 -2 27 -8 3 -12 11 -9 17 10 15 6 226 -6 439
-16 266 -17 245 5 245 22 0 29 -18 46 -125 6 -41 15 -93 20 -115 5 -22 14 -80
20 -130 24 -181 37 -236 58 -251 12 -8 27 -21 34 -28 8 -7 25 -17 38 -21 14
-4 41 -18 60 -30 19 -12 76 -43 125 -70 94 -50 232 -130 299 -172 21 -14 42
-21 47 -16 4 4 18 65 31 136 13 75 27 127 34 127 15 0 153 -142 236 -241 54
-65 128 -177 142 -213 2 -8 7 -8 14 -1 20 20 71 368 73 505 0 41 4 86 8 100 7
24 8 24 15 -10 4 -19 9 -136 13 -259 l5 -224 34 -44 c42 -55 92 -141 123 -213
13 -30 32 -73 43 -96 31 -69 24 -77 -41 -44 -44 22 -61 50 -31 50 10 0 22 5
25 10 4 6 -7 10 -27 10 -18 0 -42 7 -52 15 -11 8 -30 15 -43 15 -13 0 -23 4
-23 9 0 10 -39 27 -52 23 -13 -3 -9 12 8 36 8 12 12 22 7 22 -4 -1 -39 -5 -78
-10 -63 -8 -78 -6 -145 16 -265 89 -514 109 -578 47 -7 -7 -20 -13 -29 -13
-20 0 -125 -51 -210 -101 -60 -36 -204 -169 -183 -169 5 0 55 24 112 54 180
95 332 128 491 106 255 -33 481 -111 660 -226 46 -30 67 -39 67 -29 0 21 6 19
57 -12 29 -19 41 -33 37 -43 -3 -8 -17 -49 -30 -90 -28 -84 -43 -119 -117
-267 -60 -121 -125 -210 -224 -310 -40 -40 -69 -73 -64 -73 4 0 16 8 27 18 10
10 35 28 54 41 47 32 181 168 256 261 60 74 124 164 124 174 0 2 21 40 48 83
26 43 53 90 61 106 15 29 37 38 27 11 -3 -9 -9 -41 -12 -72 -6 -60 -19 -134
-34 -192 -5 -19 -16 -63 -25 -97 -35 -142 -48 -188 -56 -197 -5 -6 -9 -18 -9
-28 0 -10 -4 -26 -9 -36 -5 -9 -17 -35 -26 -57 -68 -158 -156 -304 -233 -388
-65 -69 -29 -59 59 17 136 118 279 300 360 461 35 71 53 84 44 33 -6 -35 -21
-165 -35 -318 -11 -119 -24 -188 -37 -201 -7 -7 -17 -1 -33 18 -21 27 -22 27
-36 9 -8 -11 -14 -26 -14 -33 0 -15 -48 -122 -92 -208 -40 -77 -133 -215 -199
-296 -47 -59 -306 -320 -360 -363 -13 -10 -53 -45 -89 -76 -36 -31 -123 -101
-195 -154 -71 -54 -141 -106 -155 -117 -14 -11 -37 -28 -52 -37 -16 -9 -28
-20 -28 -24 0 -4 -7 -8 -15 -8 -8 0 -15 -4 -15 -8 0 -5 -15 -16 -32 -25 -18
-9 -55 -30 -83 -47 -27 -17 -57 -33 -65 -37 -8 -3 -33 -18 -55 -33 -22 -14
-71 -41 -110 -60 -38 -19 -72 -37 -75 -40 -3 -3 -36 -16 -74 -29 -55 -19 -72
-22 -87 -13 -10 7 -30 12 -43 12 -14 0 -27 4 -30 9 -3 5 -20 11 -38 14 -18 3
-51 10 -73 17 -22 6 -60 16 -85 20 -25 5 -67 14 -95 20 -27 6 -72 15 -100 20
-273 50 -487 103 -685 170 -90 30 -309 141 -399 203 -100 67 -294 263 -351
355 -25 39 -48 72 -52 72 -4 0 -8 -10 -10 -22 -3 -20 -9 -23 -48 -22 -25 1
-82 16 -128 34 -75 29 -88 38 -138 98 -31 37 -66 78 -77 92 -12 14 -27 52 -34
85 -12 61 -9 83 8 53 19 -35 93 -75 149 -82 91 -12 190 -49 190 -71 0 -16 31
-77 36 -72 4 4 -29 96 -47 129 -5 10 -9 22 -9 28 0 22 -46 107 -76 140 -83 90
-91 120 -20 71 65 -45 234 -131 258 -131 15 0 3 14 -47 51 -37 27 -91 74 -120
102 -60 61 -187 217 -206 255 -7 15 -25 45 -40 67 -56 86 -229 462 -229 498 0
4 -9 26 -19 50 -73 157 -120 376 -166 759 -25 211 -18 258 19 133 33 -108 177
-405 236 -485 123 -166 200 -257 280 -331 50 -45 90 -86 90 -91 0 -5 -19 -17
-43 -28 l-42 -19 33 0 c19 -1 32 -6 32 -14 0 -7 -39 -52 -87 -101 -49 -49 -78
-83 -66 -77 37 19 45 14 38 -21 -10 -46 -44 -119 -68 -145 -28 -31 -13 -29 21
2 15 14 31 25 35 25 5 0 6 -26 2 -57 l-6 -58 23 35 23 35 3 -27 c2 -16 7 -28
11 -28 3 0 22 30 40 68 54 111 161 262 244 345 196 196 438 289 714 274 59 -3
120 -9 135 -13 44 -10 33 8 -24 43 -81 47 -146 57 -373 57 l-200 -1 -72 -43
c-40 -24 -101 -65 -135 -92 -168 -130 -200 -141 -238 -88 -25 36 -138 255
-164 320 -9 25 -21 54 -26 65 -28 70 -50 137 -59 185 -27 147 -31 180 -31 261
l0 88 91 96 c50 52 95 95 99 95 5 0 24 -33 44 -72 96 -197 217 -349 429 -540
49 -44 91 -77 94 -75 3 3 -9 26 -26 51 -40 58 -101 185 -101 210 0 11 -6 27
-13 35 -28 34 -62 170 -147 586 l-12 59 38 35 c58 51 139 100 234 144 l85 38
-58 -5 c-67 -5 -160 -46 -230 -100 -27 -21 -55 -35 -62 -32 -19 7 -27 83 -34
310 l-6 200 -35 -30 c-40 -34 -127 -97 -150 -107 -8 -4 -33 -18 -55 -32 -73
-46 -115 -66 -133 -63 -18 3 -19 -1 -3 -72 5 -25 19 -94 31 -155 20 -103 67
-262 92 -312 12 -24 -7 -50 -132 -183 l-51 -55 5 250 c3 137 11 298 17 356 7
59 9 114 6 123 -5 14 -25 -1 -94 -72 -49 -49 -115 -108 -148 -133 -33 -24 -90
-67 -126 -96 -36 -29 -71 -53 -77 -53 -5 0 -34 -24 -64 -53 -55 -54 -140 -116
-213 -156 -111 -59 -115 -64 -115 -147 0 -42 8 -96 19 -130 10 -33 24 -83 31
-111 8 -29 16 -51 18 -48 3 2 13 0 23 -6 18 -9 18 -10 1 -28 -18 -19 -37 -18
-26 2 4 7 3 8 -2 4 -5 -5 -9 -14 -9 -19 0 -6 -5 -13 -10 -15 -10 -3 -19 33
-55 211 -14 70 -45 146 -59 146 -6 0 -16 -10 -22 -22 -11 -20 -74 -96 -146
-178 l-23 -24 0 -1949 0 -1948 47 8 c27 4 73 8 103 8 l54 0 -3 -48 -3 -47 86
0 c82 0 86 1 86 22 l0 22 16 -22 c10 -15 25 -22 49 -22 33 0 34 1 28 33 -3 17
-10 40 -15 50 -5 10 -7 21 -4 25 8 7 9 5 33 -53 l19 -50 987 -3 c543 -1 987 0
987 3 0 3 -11 27 -24 54 -14 26 -34 78 -46 115 l-22 67 20 42 c35 76 51 151
57 268 3 62 10 130 15 149 35 139 56 205 70 223 16 20 20 20 103 8 47 -6 91
-10 97 -9 11 3 44 -81 36 -90 -8 -7 -43 -4 -86 7 -25 7 -56 15 -70 17 l-25 5
24 -20 c13 -12 30 -21 37 -21 8 0 22 -4 32 -9 22 -12 102 -27 217 -41 50 -6
101 -14 115 -16 14 -3 48 -9 75 -14 92 -17 136 -27 141 -32 3 -3 -7 -19 -20
-35 -74 -88 -162 -295 -245 -575 l-28 -98 284 0 283 0 171 86 c94 47 173 83
177 79 4 -4 25 -41 47 -83 l40 -77 123 -3 c67 -1 122 0 122 4 0 4 -29 67 -65
141 -36 74 -65 140 -65 148 0 34 -153 345 -205 415 -21 29 -52 60 -68 70 l-29
18 28 18 c16 9 53 32 81 51 29 18 55 33 58 33 4 0 33 18 65 40 32 22 64 40 69
40 6 0 11 5 11 10 0 6 4 10 9 10 5 0 53 27 108 60 54 33 103 60 110 60 6 0 13
4 15 8 3 8 224 118 283 141 100 41 195 97 195 117 0 18 34 18 70 -1 33 -17 70
-61 70 -83 0 -41 -176 -281 -314 -430 -86 -93 -99 -112 -71 -112 8 0 15 4 15
8 0 4 13 15 29 25 46 27 181 138 273 226 47 45 88 81 92 81 3 0 6 -19 6 -42 0
-60 28 -266 41 -307 25 -75 -10 -191 -126 -421 -67 -134 -82 -155 -174 -241
l-93 -89 62 0 c53 0 67 4 95 28 18 15 55 42 81 60 27 18 87 60 134 93 47 32
88 59 92 59 7 0 13 -17 49 -157 l21 -83 88 0 88 0 33 45 c28 38 38 44 59 40
14 -3 51 -8 83 -12 31 -3 57 -9 57 -14 0 -4 -21 -18 -47 -31 l-48 -23 104 -3
c57 -1 105 -1 107 1 2 2 9 30 15 63 16 93 124 404 164 475 66 116 97 160 126
175 l29 15 0 2634 0 2635 -651 0 c-616 0 -651 -1 -644 -17 4 -10 11 -36 15
-58 5 -22 14 -66 21 -97 12 -52 9 -81 -7 -65 -8 7 -54 195 -54 218 0 18 -10
19 -137 18 l-138 -1 -52 -57z m1336 -773 c-2 -52 -2 -53 -8 -13 -4 22 -5 46
-3 53 8 25 12 11 11 -40z m-220 -260 c-1 -94 -3 -104 -9 -63 -15 92 -11 175 7
175 2 0 2 -51 2 -112z m-1034 -918 c3 -5 -1 -10 -9 -10 -9 0 -16 5 -16 10 0 6
4 10 9 10 6 0 13 -4 16 -10z m35 0 c0 -5 -4 -10 -10 -10 -5 0 -10 5 -10 10 0
6 5 10 10 10 6 0 10 -4 10 -10z m30 0 c0 -5 -5 -10 -11 -10 -5 0 -7 5 -4 10 3
6 8 10 11 10 2 0 4 -4 4 -10z m-4181 -187 c0 -25 -1 -26 -9 -8 -12 27 -12 35
0 35 6 0 10 -12 9 -27z m1201 -667 c0 -22 -23 -36 -40 -25 -13 8 -12 12 4 24
25 19 36 19 36 1z m-462 -683 c10 -16 26 -49 35 -74 27 -70 96 -153 238 -283
42 -38 48 -47 29 -42 -14 4 -41 12 -60 18 -19 5 -50 12 -67 15 -18 3 -33 9
-33 14 0 5 -7 9 -15 9 -16 0 -40 17 -97 71 -37 35 -38 38 -48 135 -6 54 -13
114 -16 132 -8 40 8 42 34 5z m126 -114 c15 -22 51 -66 80 -97 68 -75 80 -92
69 -92 -6 0 -32 23 -59 51 -27 28 -62 63 -78 78 -24 22 -66 89 -66 105 0 15
28 -9 54 -45z m-1037 -186 c-3 -10 -5 -2 -5 17 0 19 2 27 5 18 2 -10 2 -26 0
-35z m4499 -665 c6 -73 9 -137 7 -143 -2 -5 -36 -25 -76 -44 -203 -96 -326
-157 -364 -183 -23 -15 -44 -28 -47 -28 -4 0 -30 -15 -59 -34 -28 -18 -84 -54
-124 -80 -40 -25 -75 -46 -78 -46 -3 0 -24 -13 -47 -30 -22 -16 -47 -30 -55
-30 -7 0 -13 -4 -13 -10 0 -5 -5 -10 -11 -10 -18 0 -187 -120 -213 -151 -19
-22 -26 -45 -31 -105 l-8 -77 -21 50 c-39 92 -64 115 -157 145 -149 49 -283
76 -484 97 -58 6 -60 7 -63 36 -2 32 -20 134 -29 174 -5 22 -4 23 33 18 22 -3
60 -10 87 -16 159 -36 227 -51 277 -61 90 -18 106 -21 145 -32 22 -5 49 -14
60 -18 19 -8 41 -13 108 -27 16 -3 38 -1 50 5 101 47 157 72 166 72 6 0 11 3
11 8 0 4 24 18 53 32 28 14 54 27 57 30 3 3 16 11 29 18 13 8 39 22 57 33 19
10 51 29 72 40 20 12 39 25 42 28 3 4 41 32 85 61 44 29 82 56 85 60 3 4 34
26 70 50 36 24 67 47 70 50 3 4 28 24 55 44 45 34 102 82 205 174 19 17 38 32
41 32 3 0 10 -60 15 -132z m94 -112 c0 -2 -7 -6 -15 -10 -8 -3 -15 -1 -15 4 0
6 7 10 15 10 8 0 15 -2 15 -4z m-3174 -423 c-4 -4 -39 -10 -79 -14 -40 -4 -99
-17 -132 -29 -79 -29 -101 -34 -122 -25 -50 19 140 73 261 74 44 1 76 -2 72
-6z m-378 -25 c-6 -18 -28 -21 -28 -4 0 9 7 16 16 16 9 0 14 -5 12 -12z m469
6 c-3 -3 -12 -4 -19 -1 -8 3 -5 6 6 6 11 1 17 -2 13 -5z m-1053 -35 c6 -5 4
-18 -4 -33 -16 -31 -9 -320 9 -354 18 -33 28 -27 35 20 15 103 19 118 27 124
11 6 11 -73 0 -140 -5 -27 -4 -68 1 -92 16 -76 -30 -101 -76 -41 -23 30 -51
128 -58 202 -3 26 -6 30 -32 28 -55 -4 -56 -6 -56 -107 0 -97 10 -123 32 -86
7 11 22 20 34 20 26 0 51 -27 38 -40 -9 -9 -166 -43 -261 -57 -41 -6 -43 11
-5 29 l27 13 1 150 1 150 32 3 c32 3 42 -13 21 -34 -7 -7 -10 -59 -8 -135 3
-102 6 -124 18 -124 13 0 15 31 18 208 l2 207 29 0 29 0 -6 -85 c-3 -58 -1
-85 6 -85 6 0 14 5 18 11 3 6 17 8 30 5 l24 -6 0 105 0 105 -28 0 c-37 0 -137
-17 -184 -32 l-38 -11 0 -146 c-1 -185 -23 -285 -83 -374 -24 -35 -30 -31 -16
14 34 109 38 150 39 348 l0 204 35 -6 c52 -8 246 24 279 47 21 14 52 12 70 -5z
m464 -51 c7 -7 12 -22 12 -35 0 -28 5 -28 37 -4 25 20 57 18 50 -3 -2 -6 -27
-26 -55 -45 -31 -20 -52 -41 -52 -52 0 -27 17 -32 33 -9 12 17 21 20 56 14 52
-8 86 -35 101 -78 16 -48 -18 -134 -71 -179 -48 -42 -127 -83 -137 -72 -4 4
-1 10 7 13 26 9 115 88 132 117 26 44 25 127 -2 151 -24 22 -49 11 -60 -27 -3
-13 -16 -45 -28 -71 -11 -26 -21 -58 -21 -71 0 -25 -22 -52 -33 -41 -3 4 -23
-8 -44 -25 -21 -17 -43 -31 -51 -31 -21 0 -34 48 -23 87 10 37 63 124 87 143
7 7 14 25 14 41 0 26 -3 29 -33 29 -31 0 -57 14 -57 32 0 4 17 8 37 8 20 0 45
7 55 17 19 17 24 58 8 68 -5 3 -10 13 -10 21 0 17 31 19 48 2z m393 -5 c8 -9
14 -28 14 -42 0 -18 5 -25 15 -23 54 13 81 13 95 2 25 -21 -1 -40 -55 -40 -58
0 -75 -16 -66 -65 3 -19 9 -51 12 -70 10 -59 -38 -150 -97 -180 -31 -17 -37
-14 -16 7 26 27 59 79 53 85 -3 3 -16 11 -28 17 -16 8 -24 22 -25 46 -3 38 8
56 50 83 27 17 35 41 18 52 -9 5 -70 -24 -98 -47 -19 -15 -67 -5 -71 15 -2 11
3 17 16 17 24 0 122 39 143 57 17 14 15 46 -3 70 -23 29 20 45 43 16z m493
-40 c8 -21 -18 -43 -51 -43 -13 0 -23 -4 -23 -10 0 -5 -3 -10 -8 -10 -4 0 -8
18 -8 40 l-1 40 42 0 c31 0 45 -5 49 -17z m-94 -117 c0 -25 4 -47 8 -50 5 -3
26 6 47 21 52 35 124 37 160 3 55 -51 16 -177 -78 -254 -51 -42 -151 -88 -181
-84 -16 2 -6 10 36 30 108 50 176 122 200 212 16 59 -6 96 -55 96 -36 0 -101
-47 -112 -80 -3 -10 -15 -22 -27 -25 -36 -12 -42 7 -28 94 15 88 30 107 30 37z
m-965 11 c20 -16 28 -35 32 -67 5 -57 -18 -103 -76 -148 -50 -38 -76 -43 -32
-6 62 52 89 169 47 200 -34 25 -46 17 -46 -28 0 -75 -44 -168 -79 -168 -20 0
-41 38 -41 75 0 23 28 83 54 114 18 23 69 51 93 51 12 0 34 -10 48 -23z m748
-11 c3 -8 3 -24 0 -36 -4 -15 1 -26 16 -36 18 -13 21 -25 21 -83 0 -54 -5 -75
-23 -102 -27 -40 -55 -48 -75 -23 -9 12 -16 15 -19 8 -2 -6 -10 -20 -18 -30
-11 -15 -16 -16 -26 -7 -10 10 -5 27 24 85 l36 73 -27 3 c-43 6 -59 42 -18 42
42 0 71 33 70 79 -1 33 2 41 16 41 10 0 20 -6 23 -14z m129 -88 c12 -14 18
-34 16 -53 -3 -26 -7 -30 -32 -28 -35 3 -43 10 -28 25 19 19 14 44 -10 61
l-23 16 29 0 c18 1 36 -7 48 -21z m1977 -194 c17 -34 31 -64 31 -68 0 -6 -90
1 -117 9 -9 3 -7 19 7 60 32 93 31 93 79 -1z m-384 0 c9 -31 15 -57 13 -59 -7
-6 -88 -16 -88 -11 0 21 44 135 51 131 4 -3 15 -31 24 -61z m-2567 -119 c105
-36 230 -34 327 5 41 16 56 20 50 11 -8 -14 -65 -41 -86 -41 -10 0 -21 -4 -24
-10 -4 -6 -56 -10 -123 -10 -91 0 -131 5 -184 21 -69 22 -83 34 -50 42 9 3 17
5 17 6 0 0 33 -10 73 -24z m-138 -25 c0 -11 -7 -20 -15 -20 -15 0 -21 21 -8
33 12 13 23 7 23 -13z m4600 -42 c12 -24 30 -51 39 -61 14 -17 13 -23 -13 -73
-31 -59 -41 -65 -50 -31 -12 42 -19 207 -9 207 5 0 20 -19 33 -42z m-3719 19
c-1 -12 -15 -9 -19 4 -3 6 1 10 8 8 6 -3 11 -8 11 -12z m129 4 c0 -6 -4 -13
-10 -16 -5 -3 -10 1 -10 9 0 9 5 16 10 16 6 0 10 -4 10 -9z m-930 -25 c0 -3
-4 -8 -10 -11 -5 -3 -10 -1 -10 4 0 6 5 11 10 11 6 0 10 -2 10 -4z"/>
<path d="M1074 662 c-12 -7 -18 -32 -15 -62 2 -21 40 29 41 53 0 18 -8 21 -26
9z"/>
<path d="M985 566 c-24 -36 -36 -84 -23 -92 19 -12 58 44 58 82 0 40 -13 44
-35 10z"/>
<path d="M1394 615 c-8 -34 9 -53 31 -35 20 17 16 54 -7 58 -12 2 -19 -5 -24
-23z"/>
<path d="M754 642 c-18 -28 -26 -80 -16 -98 9 -16 11 -15 21 5 7 12 18 42 26
67 12 40 11 44 -4 44 -9 0 -21 -8 -27 -18z"/>
<path d="M1612 563 c-32 -85 -36 -103 -24 -115 29 -29 67 36 60 105 -4 40 -22
45 -36 10z"/>
<path d="M3048 4555 c-20 -19 -43 -35 -52 -35 -8 0 -17 -4 -20 -8 -5 -9 154
-75 162 -67 7 6 -26 109 -41 129 -11 14 -16 12 -49 -19z"/>
<path d="M3758 4563 c6 -2 18 -2 25 0 6 3 1 5 -13 5 -14 0 -19 -2 -12 -5z"/>
<path d="M4033 4183 c26 -2 68 -2 95 0 26 2 4 3 -48 3 -52 0 -74 -1 -47 -3z"/>
<path d="M3913 4163 c9 -2 25 -2 35 0 9 3 1 5 -18 5 -19 0 -27 -2 -17 -5z"/>
<path d="M4258 4163 c12 -2 32 -2 45 0 12 2 2 4 -23 4 -25 0 -35 -2 -22 -4z"/>
<path d="M3858 4143 c6 -2 18 -2 25 0 6 3 1 5 -13 5 -14 0 -19 -2 -12 -5z"/>
<path d="M4378 4143 c12 -2 32 -2 45 0 12 2 2 4 -23 4 -25 0 -35 -2 -22 -4z"/>
<path d="M1980 4120 c0 -5 9 -10 19 -10 11 0 23 5 26 10 4 6 -5 10 -19 10 -14
0 -26 -4 -26 -10z"/>
<path d="M3808 4123 c7 -3 16 -2 19 1 4 3 -2 6 -13 5 -11 0 -14 -3 -6 -6z"/>
<path d="M4478 4123 c6 -2 18 -2 25 0 6 3 1 5 -13 5 -14 0 -19 -2 -12 -5z"/>
<path d="M4083 4063 c9 -2 25 -2 35 0 9 3 1 5 -18 5 -19 0 -27 -2 -17 -5z"/>
<path d="M3988 4043 c7 -3 16 -2 19 1 4 3 -2 6 -13 5 -11 0 -14 -3 -6 -6z"/>
<path d="M3903 4023 c9 -2 23 -2 30 0 6 3 -1 5 -18 5 -16 0 -22 -2 -12 -5z"/>
<path d="M3848 4003 c7 -3 16 -2 19 1 4 3 -2 6 -13 5 -11 0 -14 -3 -6 -6z"/>
<path d="M2185 3700 c3 -5 13 -10 21 -10 8 0 14 5 14 10 0 6 -9 10 -21 10 -11
0 -17 -4 -14 -10z"/>
<path d="M1436 3233 c-6 -14 -5 -15 5 -6 7 7 10 15 7 18 -3 3 -9 -2 -12 -12z"/>
<path d="M3775 2300 c-3 -5 -1 -10 4 -10 6 0 11 5 11 10 0 6 -2 10 -4 10 -3 0
-8 -4 -11 -10z"/>
<path d="M2894 2085 c8 -8 23 -15 33 -15 13 0 10 4 -11 15 -36 19 -41 19 -22
0z"/>
<path d="M1480 1851 c0 -5 5 -13 10 -16 6 -3 10 -2 10 4 0 5 -4 13 -10 16 -5
3 -10 2 -10 -4z"/>
<path d="M5965 373 c-15 -43 -32 -82 -36 -87 -5 -6 -9 -18 -9 -28 0 -10 -4
-18 -10 -18 -5 0 -10 -7 -10 -17 0 -9 -25 -63 -55 -120 l-54 -103 104 0 105 0
0 225 c0 124 -2 225 -4 225 -2 0 -16 -35 -31 -77z"/>
</g>
</svg>
