<?xml version="1.0" standalone="no"?><!DOCTYPE svg PUBLIC "-//W3C//DTD SVG 1.1//EN" "http://www.w3.org/Graphics/SVG/1.1/DTD/svg11.dtd"><svg class="icon" width="200px" height="200.00px" viewBox="0 0 1024 1024" version="1.1" xmlns="http://www.w3.org/2000/svg"><path d="M512 1024q12.5696 0 25.12384-0.6144 12.55424-0.61952 25.0624-1.85344 12.50816-1.2288 24.93952-3.072 12.43136-1.84832 24.76032-4.29568 12.32896-2.45248 24.51968-5.50912 12.19072-3.05152 24.2176-6.70208 12.032-3.65056 23.86432-7.8848 11.83232-4.23424 23.44448-9.04192 11.61216-4.8128 22.97344-10.18368 11.3664-5.376 22.4512-11.29984 11.0848-5.92384 21.8624-12.38528 10.78272-6.46144 21.23264-13.44512 10.44992-6.98368 20.54656-14.46912 10.09664-7.49056 19.80928-15.4624 9.71776-7.97184 19.03104-16.41472 9.31328-8.43776 18.2016-17.32608 8.88832-8.88832 17.32608-18.2016 8.44288-9.31328 16.41472-19.03104 7.97184-9.71264 15.4624-19.80928 7.48544-10.09664 14.46912-20.54656t13.44512-21.23264q6.46144-10.7776 12.38528-21.8624 5.92384-11.0848 11.29984-22.4512 5.37088-11.36128 10.18368-22.97344 4.80768-11.61216 9.04192-23.44448 4.23424-11.83232 7.8848-23.86432 3.65056-12.02688 6.70208-24.2176 3.05664-12.19072 5.50912-24.51968 2.44736-12.32896 4.29568-24.76032 1.8432-12.43136 3.072-24.93952 1.23392-12.50816 1.85344-25.0624 0.6144-12.55424 0.6144-25.12384t-0.6144-25.12384q-0.61952-12.55424-1.85344-25.0624-1.2288-12.50816-3.072-24.93952-1.84832-12.43136-4.29568-24.76032-2.45248-12.32896-5.50912-24.51968-3.05152-12.19072-6.70208-24.2176-3.65056-12.032-7.8848-23.86432-4.23424-11.83232-9.04192-23.4496-4.8128-11.60704-10.18368-22.96832-5.376-11.3664-11.29984-22.4512-5.92384-11.0848-12.38528-21.8624-6.46144-10.78272-13.44512-21.23264-6.98368-10.44992-14.46912-20.54656-7.49056-10.09664-15.4624-19.8144-7.97184-9.71264-16.41472-19.02592-8.43776-9.31328-17.32608-18.2016-8.88832-8.88832-18.2016-17.32608-9.31328-8.44288-19.03104-16.41472-9.71264-7.97184-19.80928-15.4624-10.09664-7.48544-20.54656-14.46912t-21.23264-13.44512q-10.7776-6.46144-21.8624-12.3904-11.0848-5.91872-22.4512-11.29472-11.36128-5.376-22.97344-10.18368-11.61216-4.8128-23.44448-9.04192-11.83232-4.23424-23.86432-7.8848-12.02688-3.65056-24.2176-6.7072-12.19072-3.05152-24.51968-5.504-12.32896-2.44736-24.76032-4.29568-12.43136-1.8432-24.93952-3.072-12.50816-1.23392-25.0624-1.85344Q524.5696 0 512 0t-25.12384 0.6144q-12.55424 0.6144-25.0624 1.85344-12.50816 1.2288-24.93952 3.072-12.43136 1.8432-24.76032 4.3008-12.32896 2.44736-24.51968 5.504-12.19072 3.05152-24.2176 6.70208-12.032 3.65056-23.86432 7.8848-11.83232 4.23424-23.4496 9.04192-11.60704 4.8128-22.96832 10.1888-11.3664 5.37088-22.4512 11.29472-11.0848 5.92384-21.8624 12.3904-10.78272 6.45632-21.23264 13.44-10.44992 6.98368-20.54656 14.46912-10.09664 7.49056-19.8144 15.4624-9.71264 7.97184-19.02592 16.41472-9.31328 8.43776-18.2016 17.32608-8.88832 8.88832-17.32608 18.2016-8.44288 9.31328-16.41472 19.03104-7.97184 9.71264-15.4624 19.8144-7.48544 10.0864-14.46912 20.54144-6.98368 10.44992-13.44512 21.23264-6.46144 10.7776-12.3904 21.8624-5.91872 11.0848-11.29472 22.4512-5.376 11.36128-10.18368 22.97344Q34.16064 327.68 29.93152 339.5072q-4.23424 11.83232-7.8848 23.8592-3.65056 12.032-6.7072 24.22272-3.05152 12.19072-5.504 24.51968-2.44736 12.32896-4.29568 24.76032-1.8432 12.43136-3.072 24.93952Q1.2288 474.32192 0.6144 486.87616 0 499.4304 0 512t0.6144 25.12384q0.6144 12.55424 1.85344 25.0624 1.2288 12.50816 3.072 24.93952 1.8432 12.43136 4.3008 24.76032 2.44736 12.32896 5.504 24.51968 3.05152 12.19072 6.70208 24.2176 3.65056 12.032 7.8848 23.86432 4.23424 11.83232 9.04192 23.44448 4.8128 11.61216 10.1888 22.97344 5.37088 11.3664 11.29472 22.4512 5.92384 11.0848 12.3904 21.8624 6.45632 10.78272 13.44 21.23264 6.98368 10.44992 14.46912 20.54656 7.49056 10.09664 15.4624 19.80928 7.97184 9.71776 16.41472 19.03104 8.43776 9.31328 17.32608 18.2016 8.88832 8.88832 18.2016 17.32608 9.31328 8.44288 19.03104 16.41472 9.71264 7.97184 19.8144 15.4624 10.0864 7.48544 20.54144 14.46912 10.44992 6.98368 21.23264 13.44512 10.7776 6.46144 21.8624 12.38528 11.0848 5.92384 22.4512 11.29984 11.36128 5.37088 22.97344 10.18368 11.61216 4.80768 23.44448 9.04192 11.83232 4.23424 23.8592 7.8848 12.032 3.65056 24.22272 6.70208 12.19072 3.05664 24.51968 5.50912 12.32896 2.44736 24.76032 4.29568 12.43136 1.8432 24.93952 3.072 12.50816 1.23392 25.0624 1.85344 12.55424 0.6144 25.12384 0.6144zM163.18976 344.9088c6.99392-2.7136 13.90592-6.21056 21.36064-6.9888 0.55296 5.5296 0.1536 11.14112-0.256 16.75264-0.27136 3.84512-0.54784 7.69536-0.51712 11.52a1547.80672 1547.80672 0 0 0 10.32704 191.616c37.82656-5.59104 76.43136 2.87744 111.7696 16.46592a114.5088 114.5088 0 0 1 29.5936 16.70144c4.8128 4.19328 9.78944 9.55392 9.63584 16.31232 0.77312 14.28992-8.9344 26.33216-19.10784 35.26144a173.92128 173.92128 0 0 1-59.42272 30.52544c-32.61952 9.55392-66.87232 13.82912-100.81792 12.81536-9.94304-108.43136-20.6592-217.32352-42.87488-324.12672a1222.79424 1222.79424 0 0 0 40.30976-16.85504z m352.55808 16.77824c20.5056-7.76704 40.15616-18.2528 61.44-23.69024l0.54272 2.48832c-3.73248 72.54528 1.39776 145.24416 9.3184 217.32352a181.55008 181.55008 0 0 1 59.96544 1.78688c20.19328 3.65056 40.23296 9.32352 59.02848 17.86368 10.40896 5.04832 21.13024 10.56768 28.43136 19.80928 6.13376 8.15616 3.56864 19.41504-0.77824 27.80672-6.9888 12.19584-18.3296 21.20704-30.13632 28.50304-30.60224 18.64192-66.18112 26.9568-101.44256 30.60224-14.44352 1.8688-28.96896 2.176-43.4944 1.71008-9.1648-102.13888-19.57376-204.43136-38.91712-305.408-0.84992-6.36928-3.49184-12.34944-3.95776-18.7904z m-130.0224 18.71872c10.01984-2.01728 20.19328-2.94912 30.28992-3.72736a27.04896 27.04896 0 0 1 12.04224 1.16736 10705.38752 10705.38752 0 0 0 21.27872 271.07328c-10.01984-1.00864-20.03968-0.77312-30.13632-1.31584-8.62208-89.24672-16.85504-178.88256-33.47456-267.19744z m399.68256-1.05984c11.72992-1.87904 23.80288-3.8144 35.43552-1.34656a11198.35136 11198.35136 0 0 0 21.36064 270.91968c-10.01984-1.00864-20.03968-0.77312-30.05952-1.31584-8.69888-89.24672-16.77824-178.95936-33.55648-267.19744 2.25792-0.32768 4.5312-0.6912 6.81984-1.05984z m-431.13984 63.5904a40.07936 40.07936 0 0 1 20.11648 0.1536h0.0768c1.86368 17.94048 4.19328 35.80416 5.43744 53.67296-6.21568 0.3072-12.42624 0.4608-18.64192 1.23904-2.56-18.3296-4.74112-36.6592-6.9888-55.07072z m409.6768-0.72704l1.28512 0.1024v0.0768c2.23744-0.06144 2.40128 1.9968 2.54976 3.82976 0.04096 0.52224 0.08192 1.024 0.16896 1.45408 1.32096 16.384 3.80416 32.70144 4.89472 49.09056-6.21568 0.3072-12.43136 0.4608-18.64192 1.23904a2654.6176 2654.6176 0 0 1-6.99392-54.9888c5.33504-1.73056 11.20256-1.2544 16.73728-0.80384z m-435.15392 5.69344c6.05696-0.93184 12.11392-2.3296 18.176-2.4064 2.8672 17.55648 6.44608 35.26144 6.44608 53.13024-4.97152 0.84992-9.86624 2.2528-14.83776 3.26144-3.18464-18.0224-6.9888-35.96288-9.78432-53.98528z m392.94464 0c5.98016-0.93184 11.96032-2.3296 18.17088-2.4064a332.16512 332.16512 0 0 1 6.29248 53.13024c-4.97152 0.93184-9.78432 2.2528-14.75584 3.26144-3.10784-18.0224-6.912-35.96288-9.70752-53.98528z m-240.01024 0h10.25536l-10.25536-0.0768a92.42112 92.42112 0 0 1 20.4288 1.24416c-0.23552 17.86368-0.3072 35.72736 0 53.59616-6.1696 0.4608-12.25728-0.22528-18.42688-0.9216l-0.13824-0.01024c-1.47456-17.9456-0.69632-35.96288-1.86368-53.82656z m394.96704 54.13888c-1.792-18.0224-0.85504-36.1984-2.0992-54.21568 6.8608-0.32768 13.73696 0.09216 20.5056 1.24416a2032.70144 2032.70144 0 0 0-0.0768 53.59616c-3.90656 0.34816-7.83872 0.0512-11.78624-0.24064a132.17792 132.17792 0 0 0-6.54336-0.384z m-21.26336-53.36576c4.11136-0.3328 8.23808-0.6656 12.32896-0.1536 0.0256 5.46816 0.23552 10.94656 0.45056 16.43008 0.48128 12.43648 0.96256 24.87808-0.76288 37.1712l-14.52544 1.31584-3.88096-54.36928c2.11968-0.0512 4.25472-0.22528 6.38976-0.39424z m-392.2176 0.12288c3.84-0.34816 7.69024-0.69632 11.44832-0.11776l0.0768 0.0768c0.06656 5.0688 0.256 10.15296 0.44544 15.232 0.46592 12.58496 0.93696 25.18016-0.44544 37.73952-4.736 1.55648-9.86624 0.70144-14.76096 1.792-1.00864-18.176-2.94912-36.1984-3.80416-54.2976 2.3296 0 4.6848-0.20992 7.03488-0.42496z m273.14688 70.34368c12.83072-2.87232 26.15296-5.84704 39.20384-3.81952h0.0768c1.94048 6.7584 2.71872 13.82912 3.72736 20.74112 5.51424 40.69888 9.1648 81.63328 13.35808 122.48576-10.56256 1.39776-21.27872 1.86368-31.8464 3.57376-8.38656-43.3408-17.16224-86.6816-25.3952-130.0224-0.2048-1.0752-0.44544-2.14528-0.68096-3.21024-0.68096-3.02592-1.3568-6.0416-1.18272-9.1392l2.7392-0.60928z m-386.88256-1.4848c10.94144-2.06848 22.14912-4.18816 33.06496-2.0992h0.0768c1.86368 6.21056 2.4064 12.66176 3.49184 19.03104 5.67296 41.1648 9.088 82.56512 13.6704 123.88352-10.48576 1.63328-21.27872 1.86368-31.76448 3.57376-9.2416-46.99136-18.64192-94.05952-27.648-141.12768-0.22016-1.52064 1.2288-1.75104 2.57536-1.96608 0.57856-0.09216 1.14176-0.1792 1.536-0.36352 1.65888-0.30208 3.328-0.6144 4.99712-0.93184z m505.9328 3.3024c13.18912-1.34144 26.9568-2.7392 39.76704 1.04448 2.10432 30.07488 2.11456 60.24704 2.11968 90.40896 0.00512 17.74592 0.01024 35.48672 0.44544 53.20704-4.8128-0.07168-9.57952 0.08192-14.33088 0.23552-5.76 0.18432-11.49952 0.36352-17.28512 0.1536-4.5824-48.23552-9.3952-96.54784-13.35808-144.78336l2.64192-0.26624z m-388.23936-0.32768c11.76064-1.04448 23.79776-2.10944 35.13856 1.37216v0.0768c2.26304 33.84832 2.21184 67.85024 2.16064 101.84704-0.02048 13.824-0.04096 27.648 0.09216 41.46176-3.26656 0.07168-6.54848 0.18944-9.8304 0.3072-7.168 0.26112-14.35648 0.52224-21.55008 0.31232-4.5824-48.23552-9.3952-96.47104-13.20448-144.78336 2.3808-0.16896 4.78208-0.384 7.1936-0.59392zM268.4416 608.60928c-15.45728-6.05696-30.83264-12.42624-46.91456-16.62464h-0.0768c2.3296 20.1216 5.43744 40.23808 8.54528 60.27776 14.44864-9.86624 28.42624-20.4288 42.40896-30.99136a39.2192 39.2192 0 0 0 7.69024-7.22432c-3.49696-2.64192-7.76704-3.65056-11.65312-5.43744z m386.26304-2.64192c-13.35808-5.04832-26.48576-10.56256-40.30976-13.98272-0.0768 3.18464 0.46592 6.4512 1.00864 9.55392 3.26144 16.85504 4.11648 34.176 7.38304 51.03104 12.57984-8.46336 24.62208-17.71008 36.736-26.87488 4.5824-3.72736 9.78944-6.912 13.44-11.648-5.59616-3.65056-12.19584-5.51424-18.25792-8.07936z" fill="#F16C8D" /></svg>