<?xml version="1.0" standalone="no"?><!DOCTYPE svg PUBLIC "-//W3C//DTD SVG 1.1//EN" "http://www.w3.org/Graphics/SVG/1.1/DTD/svg11.dtd"><svg class="icon" width="200px" height="200.00px" viewBox="0 0 1024 1024" version="1.1" xmlns="http://www.w3.org/2000/svg"><path d="M511.208626 233.733513a249.367429 249.367429 0 0 1 249.02288 249.152086c0 75.283984-29.889637 142.471063-69.555855 199.2786 59.693136-31.440108 134.934051-97.292059 135.020189-199.2786a314.401077 314.401077 0 0 0-314.401077-314.401077h-0.94751a314.401077 314.401077 0 0 0-314.401077 314.401077c0 101.986541 75.283984 167.967699 134.97712 199.2786-39.666218-56.807537-69.469717-123.994616-69.555855-199.2786a249.367429 249.367429 0 0 1 249.065949-249.152086zM510.304184 0A483.057873 483.057873 0 0 0 70.917913 683.585464c55.989233 122.358008 161.636608 196.780619 291.187079 230.546434l-8.613728-18.174967c-99.057873-48.495289-178.907133-143.504711-223.05249-240.366083A417.378197 417.378197 0 1 1 927.553175 482.799462c-0.30148 171.843876-104.053836 340.242261-252.296097 412.037685l-7.537012 19.768506c189.243607-58.099596 325.211306-220.382234 325.254374-431.806191A482.84253 482.84253 0 0 0 510.304184 0m139.886945 629.620458c13.868102 170.594886-80.279946 380.339166-80.279946 380.339165a148.845222 148.845222 0 0 1-59.348587 11.499327 153.625841 153.625841 0 0 1-59.86541-11.499327s-94.191117-209.74428-80.366084-380.339165c0 0 22.18035-71.752355 141.049798-71.752356s138.810229 71.752355 138.810229 71.752356m-33.636608-213.491252a106.293405 106.293405 0 1 1-106.293405-106.293405 106.293405 106.293405 0 0 1 106.293405 106.293405" fill="#007EC2" /></svg>