<?xml version="1.0" standalone="no"?><!DOCTYPE svg PUBLIC "-//W3C//DTD SVG 1.1//EN" "http://www.w3.org/Graphics/SVG/1.1/DTD/svg11.dtd"><svg t="1772875410869" class="icon" viewBox="0 0 1024 1024" version="1.1" xmlns="http://www.w3.org/2000/svg" p-id="8272" xmlns:xlink="http://www.w3.org/1999/xlink" width="200" height="200"><path d="M979.447885 555.457459c-29.693938-37.154782-67.640758-61.237208-113.872216-72.262222 14.589183-22.042556 21.863226-46.577041 21.863227-73.597852 0-37.690902-13.335746-69.865561-39.992295-96.535186-26.662152-26.660284-58.83868-39.99603-96.529582-39.99603-33.779283 0-63.286419 11.023146-88.525145 33.069437-20.968448-51.202242-54.491813-92.266776-100.530866-123.19547-46.039053-30.938034-96.796708-46.405184-152.269227-46.405184-75.372464 0-139.731123 26.67336-193.064768 80.007005-53.337381 53.320569-79.997665 117.682963-79.997665 193.061032 0 4.621465 0.356791 12.267243 1.066636 22.929862-41.953708 19.55623-75.372464 48.887773-100.267476 87.994629C12.442836 559.645544 0 602.303494 0 648.534952c0 65.780217 23.381921 122.035434 70.132687 168.789936 46.752634 46.769446 103.020928 70.140159 168.797408 70.14016h580.272147c56.524211 0 104.788068-20.008289 144.793438-60.000584 39.999766-39.992294 60.002452-88.256151 60.002452-144.800911-0.005604-47.643676-14.854441-90.040104-44.550247-127.206094z m-301.865328-14.391174c-3.386708 3.369896-7.376784 5.056712-11.992644 5.056712h-119.465048v187.739062c0 4.615861-1.686816 8.617145-5.064184 11.992645-3.386708 3.386708-7.376784 5.064184-11.992644 5.064183h-102.415692c-4.621465 0-8.620881-1.675608-11.998249-5.064183-3.369896-3.3755-5.066052-7.376784-5.066051-11.992645V546.122997H290.121129c-4.972651 0-9.065468-1.597151-12.259771-4.787718-3.199907-3.201775-4.797058-7.292724-4.797057-12.265374 0-4.270278 1.774613-8.540556 5.327573-12.805231l187.199206-187.193602c3.199907-3.201775 7.290855-4.800794 12.267243-4.800794 4.980123 0 9.071072 1.599019 12.267243 4.800794l187.733457 187.725986c3.201775 3.198039 4.78585 7.287119 4.78585 12.274715-0.001868 4.612125-1.688684 8.626485-5.062316 11.994512z" p-id="8273" fill="#2c2c2c"></path></svg>