<?xml version="1.0" standalone="no"?><!DOCTYPE svg PUBLIC "-//W3C//DTD SVG 1.1//EN" "http://www.w3.org/Graphics/SVG/1.1/DTD/svg11.dtd"><svg class="icon" width="200px" height="200.00px" viewBox="0 0 1024 1024" version="1.1" xmlns="http://www.w3.org/2000/svg"><path fill="#707070" d="M885.33 547.79H138.67C97.4 547.79 64 581.18 64 622.45v149.33c0 41.27 33.4 74.66 74.67 74.66h746.67c41.27 0 74.67-33.39 74.67-74.66V622.45c-0.01-41.27-33.41-74.66-74.68-74.66zM711.19 697.12c0 27.43-22.42 49.86-49.86 49.86-27.43 0-49.86-22.42-49.86-49.86 0-27.43 22.19-49.62 49.86-49.86 27.44 0 49.86 22.43 49.86 49.86z m149.33 0c0 27.43-22.42 49.86-49.86 49.86s-49.86-22.42-49.86-49.86c0-27.43 22.19-49.62 49.86-49.86 27.44 0 49.86 22.43 49.86 49.86zM138.67 498.17h746.67c16.46 0.48 32.44 3.81 47.71 9.54L782.99 210.95c-12.17-18.37-40.08-33.39-62.26-33.39h-417.7c-21.95 0-49.86 14.79-62.02 33.39L90.96 507.7c12.4-5.24 33.87-9.53 47.71-9.53z m286.97-242.85c58.68-14.79 118.32-7.4 179.39 22.42l46.28-67.99 37.93 200.62-200.62 37.93 47.47-69.66c-43.18-29.58-84.92-47.47-125-54.15s-81.11-2.15-122.62 13.12c42.71-41.74 88.51-69.41 137.17-82.29z" /></svg>