<?xml version="1.0" standalone="no"?><!DOCTYPE svg PUBLIC "-//W3C//DTD SVG 1.1//EN" "http://www.w3.org/Graphics/SVG/1.1/DTD/svg11.dtd"><svg t="1772876288324" class="icon" viewBox="0 0 1024 1024" version="1.1" xmlns="http://www.w3.org/2000/svg" p-id="18228" id="mx_n_1772876288328" xmlns:xlink="http://www.w3.org/1999/xlink" width="200" height="200"><path d="M962.864 320H236.672a80 80 0 0 0-57.376 24.256L125.136 400h107.184c-38.096 42.48-61.472 98.448-61.472 160s23.376 117.52 61.472 160H125.136l54.144 55.744A80.048 80.048 0 0 0 236.672 800h398.176c0-88.368 71.632-160 160-160s160 71.632 160 160h8a40 40 0 0 0 40-40v-400a39.984 39.984 0 0 0-39.984-40z" fill="#FF5252" p-id="18229"></path><path d="M634.864 808H236.672a88.48 88.48 0 0 1-63.12-26.672l-54.16-55.744a8 8 0 1 1 11.488-11.152l54.144 55.744a72.384 72.384 0 0 0 51.648 21.824h398.192a8 8 0 0 1 0 16zM962.864 808h-8a8 8 0 0 1 0-16h8c17.648 0 32-14.352 32-32v-400c0-17.648-14.352-32-32-32H236.672a72.448 72.448 0 0 0-51.648 21.824L130.88 405.584a8 8 0 1 1-11.488-11.152l54.144-55.744a88.48 88.48 0 0 1 63.12-26.672h726.192c26.464 0 48 21.536 48 48v400a48.032 48.032 0 0 1-47.984 47.984z" fill="#263238" p-id="18230"></path><path d="M1002.864 416h-128a8 8 0 0 1 0-16h128a8 8 0 0 1 0 16z" fill="#263238" p-id="18231"></path><path d="M842.864 448c-22.048 0-40-17.936-40-40s17.952-40 40-40 40 17.936 40 40-17.952 40-40 40z m0-64c-13.232 0-24 10.768-24 24s10.768 24 24 24 24-10.768 24-24-10.768-24-24-24zM1002.864 600h-96a8 8 0 0 1 0-16h96a8 8 0 0 1 0 16z" fill="#263238" p-id="18232"></path><path d="M874.864 632c-22.048 0-40-17.936-40-40s17.952-40 40-40 40 17.936 40 40-17.952 40-40 40z m0-64c-13.232 0-24 10.768-24 24s10.768 24 24 24 24-10.768 24-24-10.768-24-24-24zM772.16 564.528a8 8 0 0 1-4.88-14.336l78.704-60.528a8 8 0 0 1 4.88-1.664h152a8 8 0 0 1 0 16h-149.28l-76.544 58.88a8.048 8.048 0 0 1-4.88 1.648z" fill="#263238" p-id="18233"></path><path d="M746.864 616c-22.048 0-40-17.936-40-40s17.952-40 40-40 40 17.936 40 40-17.952 40-40 40z m0-64c-13.232 0-24 10.768-24 24s10.768 24 24 24 24-10.768 24-24-10.768-24-24-24zM858.864 296a8 8 0 0 1-8-8v-16a8 8 0 0 0-8-8h-96a8 8 0 0 0-8 8v16a8 8 0 0 1-16 0v-16c0-13.232 10.768-24 24-24h96c13.232 0 24 10.768 24 24v16a8 8 0 0 1-8 8z" fill="#263238" p-id="18234"></path><path d="M410.864 320c-132.336 0-240 107.664-240 240s107.664 240 240 240 240-107.664 240-240-107.664-240-240-240z m174.128 215.76H468.8l82.032-82.032a175.008 175.008 0 0 1 34.16 82.032z m-150.128-149.92a174.912 174.912 0 0 1 82 34l-82 82v-116z m-48 115.984l-82-82a174.912 174.912 0 0 1 82-34v116z m0 232.336a174.976 174.976 0 0 1-82.272-34.192l82.272-82.272v116.464z m48-116.464l82.272 82.272a174.896 174.896 0 0 1-82.272 34.192v-116.464zM270.896 453.728l82.032 82.032h-116.192a174.688 174.688 0 0 1 34.16-82.032z m-34.24 130.032h116.272l-82.224 82.224a174.608 174.608 0 0 1-34.048-82.224z m314.368 82.24l-82.224-82.24h116.272a175.056 175.056 0 0 1-34.048 82.24z" fill="#FFFFFF" p-id="18235"></path><path d="M410.864 808c-136.752 0-248-111.248-248-248s111.248-248 248-248 248 111.248 248 248-111.248 248-248 248z m0-480c-127.92 0-232 104.08-232 232s104.08 232 232 232 232-104.08 232-232-104.08-232-232-232z m24 414.176a8.016 8.016 0 0 1-8-8v-116.464a8 8 0 0 1 13.664-5.664l82.272 82.272a8 8 0 0 1-0.8 12.016 183.52 183.52 0 0 1-86.016 35.76 9.44 9.44 0 0 1-1.12 0.08z m8-105.168v87.712a167.936 167.936 0 0 0 61.952-25.76l-61.952-61.952z m-56 105.168a8.496 8.496 0 0 1-1.088-0.08 183.68 183.68 0 0 1-86.016-35.76 7.936 7.936 0 0 1-0.8-12.016l82.272-82.272a8 8 0 1 1 13.664 5.664v116.464a7.984 7.984 0 0 1-8.032 8z m-69.952-43.2a167.664 167.664 0 0 0 61.952 25.76v-87.712l-61.952 61.952z m-46.224-24.976l-0.544-0.016a8 8 0 0 1-5.824-3.152 183.744 183.744 0 0 1-35.584-85.984 7.968 7.968 0 0 1 7.92-9.072h116.272a8 8 0 0 1 5.664 13.664l-82.24 82.24a8.16 8.16 0 0 1-5.664 2.32z m-24.608-82.24c4.272 22.096 12.992 43.2 25.632 61.904l61.904-61.904H246.08z m304.944 82.24a8.112 8.112 0 0 1-5.664-2.336l-82.224-82.24a7.984 7.984 0 0 1 5.664-13.664h116.272a7.984 7.984 0 0 1 7.92 9.072 183.6 183.6 0 0 1-35.6 85.984 7.952 7.952 0 0 1-5.824 3.152c-0.176 0.032-0.368 0.032-0.544 0.032z m-62.912-82.24l61.904 61.904a167.68 167.68 0 0 0 25.632-61.904h-87.536z m96.88-48H468.8a8 8 0 0 1-5.664-13.664l82.032-82.032a8 8 0 0 1 12.016 0.8 183.472 183.472 0 0 1 35.712 85.776 7.936 7.936 0 0 1-1.888 6.336 7.808 7.808 0 0 1-6.016 2.784z m-96.88-16h87.44a168.048 168.048 0 0 0-25.712-61.712l-61.728 61.712z m-135.184 16h-116.192a7.952 7.952 0 0 1-7.92-9.088 183.808 183.808 0 0 1 35.712-85.776 7.936 7.936 0 0 1 12.016-0.8l82.032 82.032a7.984 7.984 0 0 1-5.648 13.632z m-106.752-16h87.44l-61.712-61.712a167.52 167.52 0 0 0-25.728 61.712z m140.688-17.936a8.064 8.064 0 0 1-5.664-2.336L299.2 425.488a7.984 7.984 0 0 1 0.816-12.032 183.584 183.584 0 0 1 85.744-35.552 7.952 7.952 0 0 1 9.088 7.92v116a8 8 0 0 1-7.984 8z m-69.68-88.976l61.664 61.664v-87.248a168.08 168.08 0 0 0-61.664 25.584z m117.68 88.976a8 8 0 0 1-8-8v-116a7.984 7.984 0 0 1 9.088-7.92 183.472 183.472 0 0 1 85.728 35.552 8 8 0 0 1 0.816 12.032l-82 82a7.936 7.936 0 0 1-5.632 2.336z m8-114.56v87.248l61.664-61.664a167.84 167.84 0 0 0-61.664-25.584z" fill="#263238" p-id="18236"></path><path d="M544.576 535.76a135.088 135.088 0 0 0-22.24-53.536L468.8 535.76h75.776z" fill="#FFFFFF" p-id="18237"></path><path d="M544.576 543.76H468.8a8 8 0 0 1-5.664-13.664l53.536-53.552a8.384 8.384 0 0 1 6.352-2.32 8.032 8.032 0 0 1 5.856 3.392 142.448 142.448 0 0 1 23.552 56.704 8.048 8.048 0 0 1-7.856 9.44z m-56.464-16h46.544a126.368 126.368 0 0 0-13.664-32.896l-32.88 32.896z" fill="#263238" p-id="18238"></path><path d="M352.928 535.76l-53.536-53.536a135.04 135.04 0 0 0-22.24 53.536h75.776z" fill="#FFFFFF" p-id="18239"></path><path d="M352.928 543.76h-75.792a7.952 7.952 0 0 1-7.872-9.424 142.448 142.448 0 0 1 23.568-56.704 8.032 8.032 0 0 1 5.856-3.392 8.32 8.32 0 0 1 6.352 2.32l53.536 53.552a7.984 7.984 0 0 1-5.648 13.648z m-65.872-16h46.544l-32.88-32.896a127.152 127.152 0 0 0-13.664 32.896z" fill="#263238" p-id="18240"></path><path d="M468.8 583.76l53.744 53.744a134.864 134.864 0 0 0 22.112-53.744H468.8z" fill="#FFFFFF" p-id="18241"></path><path d="M522.528 645.504a8.112 8.112 0 0 1-5.664-2.336l-53.728-53.728a7.984 7.984 0 0 1 5.664-13.664h75.856a7.952 7.952 0 0 1 7.872 9.392 142.176 142.176 0 0 1-23.424 56.912 8 8 0 0 1-5.856 3.408l-0.72 0.016z m-34.416-53.744l33.056 33.056a126.24 126.24 0 0 0 13.6-33.056h-46.656z" fill="#263238" p-id="18242"></path><path d="M488.368 448.32a135.216 135.216 0 0 0-53.504-22.08v75.584l53.504-53.504z" fill="#FFFFFF" p-id="18243"></path><path d="M434.864 509.824a8 8 0 0 1-8-8V426.24a8.016 8.016 0 0 1 9.408-7.872 142.24 142.24 0 0 1 56.672 23.392 7.952 7.952 0 0 1 1.072 12.208l-53.504 53.504a7.952 7.952 0 0 1-5.648 2.352z m8-73.664v46.352l32.816-32.832a126.432 126.432 0 0 0-32.816-13.52z" fill="#263238" p-id="18244"></path><path d="M434.864 617.696v76.048a135.04 135.04 0 0 0 53.776-22.288l-53.776-53.76z" fill="#FFFFFF" p-id="18245"></path><path d="M434.864 701.744a8.048 8.048 0 0 1-8-8v-76.048a8 8 0 0 1 13.664-5.664l53.776 53.76a8.016 8.016 0 0 1-1.056 12.208 142.64 142.64 0 0 1-56.96 23.6 7.408 7.408 0 0 1-1.424 0.144z m8-64.736v46.832a126.624 126.624 0 0 0 33.104-13.712l-33.104-33.12z" fill="#263238" p-id="18246"></path><path d="M333.36 448.32l53.504 53.504V426.24a135.12 135.12 0 0 0-53.504 22.08z" fill="#FFFFFF" p-id="18247"></path><path d="M386.864 509.824a8.064 8.064 0 0 1-5.664-2.336l-53.504-53.504a8.016 8.016 0 0 1 1.072-12.208 141.936 141.936 0 0 1 56.672-23.392 8 8 0 0 1 9.408 7.872v75.584a8 8 0 0 1-7.984 7.984z m-40.832-60.144l32.832 32.832V436.16a125.664 125.664 0 0 0-32.832 13.52z" fill="#263238" p-id="18248"></path><path d="M352.928 583.76h-75.856a135.28 135.28 0 0 0 22.112 53.744l53.744-53.744z" fill="#FFFFFF" p-id="18249"></path><path d="M299.184 645.504a7.968 7.968 0 0 1-6.56-3.44 142.32 142.32 0 0 1-23.424-56.912 7.968 7.968 0 0 1 7.872-9.392h75.856a8 8 0 0 1 5.664 13.664l-53.744 53.728a8.064 8.064 0 0 1-5.664 2.352z m-12.224-53.744c2.96 11.664 7.504 22.736 13.584 33.04l33.056-33.04h-46.64z" fill="#263238" p-id="18250"></path><path d="M333.088 671.472a135.28 135.28 0 0 0 53.776 22.288v-76.048l-53.776 53.76z" fill="#FFFFFF" p-id="18251"></path><path d="M386.864 701.744a8.384 8.384 0 0 1-1.408-0.128 141.84 141.84 0 0 1-56.96-23.616 7.936 7.936 0 0 1-1.056-12.192l53.776-53.76a8 8 0 1 1 13.664 5.664v76.048a8.016 8.016 0 0 1-8.016 7.984z m-41.12-31.616c10.336 6.144 21.408 10.72 33.12 13.712v-46.832l-33.12 33.12zM191.376 728h-154.24c-13.232 0-24-10.768-24-24v-48a8 8 0 0 1 8-8h48v-48h-48a8 8 0 0 1-8-8v-64a8 8 0 0 1 8-8h48v-48h-48a8 8 0 0 1-8-8v-48c0-13.232 10.768-24 24-24h155.184a8 8 0 0 1 0 16H37.136a8 8 0 0 0-8 8v40h48a8 8 0 0 1 8 8v64a8 8 0 0 1-8 8h-48v48h48a8 8 0 0 1 8 8v64a8 8 0 0 1-8 8h-48V704a8 8 0 0 0 8 8h154.24a8 8 0 0 1 0 16z" fill="#263238" p-id="18252"></path><path d="M794.864 800m-128 0a128 128 0 1 0 256 0 128 128 0 1 0-256 0Z" fill="#FFD740" p-id="18253"></path><path d="M794.864 936c-74.992 0-136-61.008-136-136s61.008-136 136-136 136 61.008 136 136-61.008 136-136 136z m0-256c-66.176 0-120 53.824-120 120s53.824 120 120 120 120-53.824 120-120-53.84-120-120-120z" fill="#263238" p-id="18254"></path><path d="M810.864 808h-52a8 8 0 0 1-8-8v-56a8 8 0 0 1 8-8h52c19.856 0 36 16.16 36 36s-16.16 36-36 36z m-44-16h44c11.024 0 20-8.976 20-20S821.888 752 810.864 752h-44v40z" fill="#263238" p-id="18255"></path><path d="M818.864 864h-60a8 8 0 0 1-8-8V800a8 8 0 0 1 8-8h60c19.856 0 36 16.16 36 36S838.704 864 818.864 864z m-52-16h52c11.024 0 20-8.976 20-20s-8.976-20-20-20h-52V848zM758.864 752h-16a8 8 0 0 1 0-16h16a8 8 0 0 1 0 16z" fill="#263238" p-id="18256"></path><path d="M758.864 864h-16a8 8 0 0 1 0-16h16a8 8 0 0 1 0 16zM774.864 744a8 8 0 0 1-8-8v-16a8 8 0 0 1 16 0v16a8 8 0 0 1-8 8zM806.864 744a8 8 0 0 1-8-8v-16a8 8 0 0 1 16 0v16a8 8 0 0 1-8 8z" fill="#263238" p-id="18257"></path><path d="M774.864 888a8 8 0 0 1-8-8v-16a8 8 0 0 1 16 0v16a8 8 0 0 1-8 8z" fill="#263238" p-id="18258"></path><path d="M806.864 888a8 8 0 0 1-8-8v-16a8 8 0 0 1 16 0v16a8 8 0 0 1-8 8z" fill="#263238" p-id="18259"></path><path d="M624 232h-32a8 8 0 0 1 0-16h32a8 8 0 0 1 0 16z" fill="#263238" p-id="18260"></path><path d="M560 232H240a8 8 0 0 1 0-16h320a8 8 0 0 1 0 16z" fill="#263238" p-id="18261"></path><path d="M272 904h-32a8 8 0 0 1 0-16h32a8 8 0 0 1 0 16z" fill="#263238" p-id="18262"></path><path d="M624 904H304a8 8 0 0 1 0-16h320a8 8 0 0 1 0 16z" fill="#263238" p-id="18263"></path><path d="M192 136H128a8 8 0 0 1 0-16h64a8 8 0 0 1 0 16z" fill="#263238" p-id="18264"></path><path d="M160 168a8 8 0 0 1-8-8V96a8 8 0 0 1 16 0v64a8 8 0 0 1-8 8z" fill="#263238" p-id="18265"></path><path d="M112 232H48a8 8 0 0 1 0-16h64a8 8 0 0 1 0 16z" fill="#263238" p-id="18266"></path><path d="M80 264a8 8 0 0 1-8-8v-64a8 8 0 0 1 16 0v64a8 8 0 0 1-8 8z" fill="#263238" p-id="18267"></path></svg>