<?xml version="1.0" standalone="no"?><!DOCTYPE svg PUBLIC "-//W3C//DTD SVG 1.1//EN" "http://www.w3.org/Graphics/SVG/1.1/DTD/svg11.dtd"><svg class="icon" width="200px" height="200.00px" viewBox="0 0 1024 1024" version="1.1" xmlns="http://www.w3.org/2000/svg"><path d="M512 0c282.784 0 512 229.216 512 512s-229.216 512-512 512S0 794.784 0 512 229.216 0 512 0z m-121.536 438.624H297.504v298.688h92.96v-298.688z m236.48-7.424c-45.184 0-75.52 24.736-87.872 48.224h-1.28v-40.8h-89.024v298.688h92.768v-147.808c0-38.912 7.36-76.64 55.68-76.64 47.616 0 48.32 44.544 48.32 79.2v145.248h92.8v-163.84c0-80.448-17.408-142.272-111.36-142.272z m-282.912-141.056a53.824 53.824 0 1 0-0.128 107.648 53.824 53.824 0 0 0 0.128-107.648z" fill="#0767C4" /></svg>