<?xml version="1.0" standalone="no"?><!DOCTYPE svg PUBLIC "-//W3C//DTD SVG 1.1//EN" "http://www.w3.org/Graphics/SVG/1.1/DTD/svg11.dtd"><svg class="icon" width="200px" height="200.00px" viewBox="0 0 1024 1024" version="1.1" xmlns="http://www.w3.org/2000/svg"><path d="M978.690276 439.182222c81.92-79.644444 29.582222-170.666667 0-188.871111L500.823609 0 22.956942 250.311111l2.275556 2.275556c13.653333 47.786667 20.48 104.675556 0 127.431111-22.755556 20.48-22.755556 38.684444 0 54.613333 13.653333 47.786667 20.48 104.675556 0 127.431111-38.684444 22.755556-29.582222 38.684444 6.826666 56.888889 9.102222 40.96 9.102222 81.92-6.826666 102.4-43.235556 27.306667-27.306667 43.235556 20.48 65.991111C95.77472 810.097778 498.548053 1024 498.548053 1024s393.671111-193.422222 473.315556-236.657778c75.093333-40.96 56.888889-138.808889 20.48-175.217778 59.164444-61.44 25.031111-147.911111-13.653333-172.942222zM732.930276 204.8l63.715555 34.133333L519.028053 386.844444 455.312498 352.711111 732.930276 204.8zM500.823609 500.622222l434.631111-227.555555c40.96 9.102222 70.542222 97.848889 13.653333 129.706666-43.235556 22.755556-450.56 236.657778-450.56 236.657778L52.539164 405.048889c20.48-38.684444 34.133333-54.613333 15.928889-129.706667L500.823609 500.622222z m439.182222 257.137778l-443.733333 223.004444L47.988053 744.106667c25.031111-6.826667 22.755556-68.266667 22.755556-104.675556C168.592498 689.493333 498.548053 864.711111 498.548053 864.711111s354.986667-182.044444 455.111111-229.831111c25.031111 31.857778 45.511111 88.746667-13.653333 122.88z m9.102222-172.942222c-50.062222 31.857778-450.56 236.657778-450.56 236.657778L47.988053 584.817778C77.570276 568.888889 75.29472 500.622222 68.468053 455.111111c97.848889 50.062222 430.08 227.555556 430.08 227.555556s323.128889-166.115556 439.182223-220.728889c29.582222 22.755556 61.44 88.746667 11.377777 122.88z" fill="#4FAFF2" /></svg>