<?xml version="1.0" encoding="UTF-8"?>
<svg id="_图层_2" data-name="图层 2" xmlns="http://www.w3.org/2000/svg" viewBox="0 0 372.97 216.99">
  <defs>
    <style>
      .cls-1, .cls-2, .cls-3, .cls-4, .cls-5, .cls-6, .cls-7 {
        stroke-miterlimit: 10;
      }

      .cls-1, .cls-4, .cls-5, .cls-6 {
        fill: none;
      }

      .cls-1, .cls-7 {
        stroke: #6bb476;
      }

      .cls-2, .cls-3, .cls-7 {
        fill: #fff;
      }

      .cls-2, .cls-6 {
        stroke: #00acec;
      }

      .cls-3, .cls-4 {
        stroke: #32a457;
      }

      .cls-8 {
        fill: #6bb476;
      }

      .cls-8, .cls-9, .cls-10, .cls-11 {
        stroke-width: 0px;
      }

      .cls-12 {
        font-family: TimesNewRomanPS-ItalicMT, 'Times New Roman';
        font-size: 12px;
        font-style: italic;
      }

      .cls-12, .cls-13, .cls-14, .cls-15 {
        fill: #000300;
      }

      .cls-5 {
        stroke: #262424;
      }

      .cls-9 {
        fill: #32a457;
      }

      .cls-13 {
        font-size: 7.08px;
      }

      .cls-13, .cls-15 {
        font-family: TimesNewRomanPSMT, 'Times New Roman';
      }

      .cls-14 {
        font-family: SymbolMT, Symbol;
        font-size: 12.88px;
      }

      .cls-10, .cls-16 {
        fill: #262424;
      }

      .cls-15 {
        font-size: 6.94px;
      }

      .cls-11 {
        fill: #00acec;
      }

      .cls-16 {
        font-family: AdobeSongStd-Light-GBpc-EUC-H, 'Adobe Song Std';
        font-size: 12px;
        font-weight: 300;
      }
    </style>
  </defs>
  <g id="_图层_10" data-name="图层 10">
    <g>
      <rect class="cls-2" x="285.55" y="2.26" width="20.15" height="37.33"/>
      <line class="cls-6" x1="286.01" y1="8.22" x2="305.03" y2="34.86"/>
      <line class="cls-6" x1="286.09" y1="34.86" x2="304.74" y2="8.16"/>
      <g>
        <line class="cls-6" x1="265.7" y1="21.54" x2="279.58" y2="21.52"/>
        <polygon class="cls-11" points="276.78 25.22 278.35 21.52 276.77 17.82 285.55 21.51 276.78 25.22"/>
      </g>
    </g>
    <g>
      <rect class="cls-2" x="285.55" y="161.11" width="20.15" height="37.33"/>
      <line class="cls-6" x1="286.01" y1="167.07" x2="305.03" y2="193.7"/>
      <line class="cls-6" x1="286.09" y1="193.7" x2="304.74" y2="167.01"/>
      <g>
        <line class="cls-6" x1="265.7" y1="180.39" x2="279.58" y2="180.36"/>
        <polygon class="cls-11" points="276.78 184.07 278.35 180.37 276.77 176.67 285.55 180.35 276.78 184.07"/>
      </g>
    </g>
    <g>
      <rect class="cls-2" x="285.55" y="105.11" width="20.15" height="37.33"/>
      <line class="cls-6" x1="286.01" y1="111.06" x2="305.03" y2="137.7"/>
      <line class="cls-6" x1="286.09" y1="137.7" x2="304.74" y2="111"/>
      <g>
        <line class="cls-6" x1="265.7" y1="124.39" x2="279.58" y2="124.36"/>
        <polygon class="cls-11" points="276.78 128.07 278.35 124.36 276.77 120.66 285.55 124.35 276.78 128.07"/>
      </g>
    </g>
    <g>
      <rect class="cls-2" x="285.55" y="54.97" width="20.15" height="37.33"/>
      <line class="cls-6" x1="286.01" y1="60.92" x2="305.03" y2="87.56"/>
      <line class="cls-6" x1="286.09" y1="87.56" x2="304.74" y2="60.87"/>
      <g>
        <line class="cls-6" x1="265.7" y1="74.25" x2="279.58" y2="74.22"/>
        <polygon class="cls-11" points="276.78 77.93 278.35 74.23 276.77 70.53 285.55 74.21 276.78 77.93"/>
      </g>
    </g>
    <g>
      <rect class="cls-3" x="196.09" y="3.25" width="20.15" height="64.89"/>
      <line class="cls-4" x1="196.55" y1="8.78" x2="215.58" y2="62.69"/>
      <line class="cls-4" x1="196.63" y1="62.69" x2="215.28" y2="8.66"/>
      <g>
        <line class="cls-4" x1="176.52" y1="52.14" x2="190.4" y2="52.09"/>
        <polygon class="cls-9" points="187.61 55.8 189.17 52.1 187.58 48.4 196.37 52.07 187.61 55.8"/>
      </g>
    </g>
    <g>
      <rect class="cls-7" x="196.09" y="109" width="20.15" height="64.89"/>
      <line class="cls-1" x1="196.55" y1="114.53" x2="215.58" y2="168.44"/>
      <line class="cls-1" x1="196.63" y1="168.44" x2="215.28" y2="114.41"/>
      <g>
        <line class="cls-1" x1="176.3" y1="157.6" x2="190.18" y2="157.55"/>
        <polygon class="cls-8" points="187.38 161.26 188.94 157.55 187.36 153.86 196.15 157.53 187.38 161.26"/>
      </g>
    </g>
    <g>
      <rect class="cls-7" x="228.08" y="29.24" width="20.15" height="64.89"/>
      <line class="cls-1" x1="228.54" y1="34.78" x2="247.56" y2="88.69"/>
      <line class="cls-1" x1="228.62" y1="88.69" x2="247.26" y2="34.66"/>
      <g>
        <line class="cls-1" x1="208.02" y1="77.76" x2="221.9" y2="77.71"/>
        <polygon class="cls-8" points="219.1 81.42 220.66 77.71 219.08 74.02 227.87 77.69 219.1 81.42"/>
      </g>
    </g>
    <g>
      <rect class="cls-7" x="227.82" y="135.35" width="20.15" height="64.89"/>
      <line class="cls-1" x1="228.27" y1="140.88" x2="247.3" y2="194.79"/>
      <line class="cls-1" x1="228.36" y1="194.79" x2="247" y2="140.76"/>
      <g>
        <line class="cls-1" x1="208.28" y1="184.05" x2="222.16" y2="184"/>
        <polygon class="cls-8" points="219.37 187.71 220.93 184.01 219.34 180.31 228.13 183.98 219.37 187.71"/>
      </g>
    </g>
    <text class="cls-15" transform="translate(6.64 14.53)"><tspan x="0" y="0">0</tspan></text>
    <text class="cls-15" transform="translate(5.51 41.3)"><tspan x="0" y="0">1</tspan></text>
    <text class="cls-15" transform="translate(6.26 68.88)"><tspan x="0" y="0">2</tspan></text>
    <text class="cls-15" transform="translate(5.76 95.39)"><tspan x="0" y="0">3</tspan></text>
    <text class="cls-15" transform="translate(6.47 119.84)"><tspan x="0" y="0">4</tspan></text>
    <text class="cls-15" transform="translate(5.76 148.77)"><tspan x="0" y="0">5</tspan></text>
    <text class="cls-15" transform="translate(5.88 174.68)"><tspan x="0" y="0">6</tspan></text>
    <text class="cls-15" transform="translate(6.2 201.54)"><tspan x="0" y="0">7</tspan></text>
    <text class="cls-15" transform="translate(369.5 13.06)"><tspan x="0" y="0">0</tspan></text>
    <text class="cls-15" transform="translate(369.44 39.7)"><tspan x="0" y="0">1</tspan></text>
    <text class="cls-15" transform="translate(368.63 66.41)"><tspan x="0" y="0">2</tspan></text>
    <text class="cls-15" transform="translate(369.01 92.93)"><tspan x="0" y="0">3</tspan></text>
    <text class="cls-15" transform="translate(368.63 119.78)"><tspan x="0" y="0">4</tspan></text>
    <text class="cls-15" transform="translate(369.01 147.35)"><tspan x="0" y="0">5</tspan></text>
    <text class="cls-15" transform="translate(369.14 173.98)"><tspan x="0" y="0">6</tspan></text>
    <text class="cls-15" transform="translate(368.54 200.25)"><tspan x="0" y="0">7</tspan></text>
    <text class="cls-12" transform="translate(0 198.45)"><tspan x="0" y="0">a</tspan></text>
    <text class="cls-12" transform="translate(.76 11.44)"><tspan x="0" y="0">a</tspan></text>
    <text class="cls-12" transform="translate(.28 38.2)"><tspan x="0" y="0">a</tspan></text>
    <text class="cls-12" transform="translate(.28 65.8)"><tspan x="0" y="0">a</tspan></text>
    <text class="cls-12" transform="translate(0 92.3)"><tspan x="0" y="0">a</tspan></text>
    <text class="cls-12" transform="translate(.48 116.75)"><tspan x="0" y="0">a</tspan></text>
    <text class="cls-12" transform="translate(0 145.68)"><tspan x="0" y="0">a</tspan></text>
    <text class="cls-12" transform="translate(0 171.58)"><tspan x="0" y="0">a</tspan></text>
    <text class="cls-12" transform="translate(364.17 9.97)"><tspan x="0" y="0">y</tspan></text>
    <text class="cls-12" transform="translate(364.77 36.6)"><tspan x="0" y="0">y</tspan></text>
    <text class="cls-12" transform="translate(363.21 63.33)"><tspan x="0" y="0">y</tspan></text>
    <text class="cls-12" transform="translate(363.81 89.84)"><tspan x="0" y="0">y</tspan></text>
    <text class="cls-12" transform="translate(363.21 116.7)"><tspan x="0" y="0">y</tspan></text>
    <text class="cls-12" transform="translate(363.81 144.26)"><tspan x="0" y="0">y</tspan></text>
    <text class="cls-12" transform="translate(363.81 170.89)"><tspan x="0" y="0">y</tspan></text>
    <text class="cls-12" transform="translate(363.21 197.15)"><tspan x="0" y="0">y</tspan></text>
    <g>
      <text class="cls-13" transform="translate(19.22 99.82) scale(.97 1)"><tspan x="0" y="0">0</tspan></text>
      <text class="cls-13" transform="translate(18.87 110.39) scale(.97 1)"><tspan x="0" y="0">2</tspan></text>
      <text class="cls-14" transform="translate(9.32 106.05) scale(.93 .95) skewX(-18.43)"><tspan x="0" y="0">ω</tspan></text>
    </g>
    <g>
      <text class="cls-13" transform="translate(84.25 152.64) scale(.97 1)"><tspan x="0" y="0">0</tspan></text>
      <text class="cls-13" transform="translate(83.91 163.21) scale(.97 1)"><tspan x="0" y="0">2</tspan></text>
      <text class="cls-14" transform="translate(74.36 158.87) scale(.93 .95) skewX(-18.43)"><tspan x="0" y="0">ω</tspan></text>
    </g>
    <g>
      <text class="cls-13" transform="translate(52.33 126.99) scale(.97 1)"><tspan x="0" y="0">0</tspan></text>
      <text class="cls-13" transform="translate(51.99 137.56) scale(.97 1)"><tspan x="0" y="0">2</tspan></text>
      <text class="cls-14" transform="translate(42.44 133.22) scale(.93 .95) skewX(-18.43)"><tspan x="0" y="0">ω</tspan></text>
    </g>
    <g>
      <text class="cls-13" transform="translate(116.11 180.38) scale(.97 1)"><tspan x="0" y="0">0</tspan></text>
      <text class="cls-13" transform="translate(115.77 190.96) scale(.97 1)"><tspan x="0" y="0">2</tspan></text>
      <text class="cls-14" transform="translate(106.22 186.61) scale(.93 .95) skewX(-18.43)"><tspan x="0" y="0">ω</tspan></text>
    </g>
    <text class="cls-13" transform="translate(172.7 46.88) scale(.97 1)"><tspan x="0" y="0">0</tspan></text>
    <text class="cls-13" transform="translate(172.36 57.45) scale(.97 1)"><tspan x="0" y="0">4</tspan></text>
    <text class="cls-14" transform="translate(162.81 53.11) scale(.93 .95) skewX(-18.43)"><tspan x="0" y="0">ω</tspan></text>
    <g>
      <text class="cls-13" transform="translate(203.44 74.24) scale(.97 1)"><tspan x="0" y="0">1</tspan></text>
      <text class="cls-13" transform="translate(203.1 84.82) scale(.97 1)"><tspan x="0" y="0">4</tspan></text>
      <text class="cls-14" transform="translate(193.55 80.47) scale(.93 .95) skewX(-18.43)"><tspan x="0" y="0">ω</tspan></text>
    </g>
    <text class="cls-13" transform="translate(172.59 153.78) scale(.97 1)"><tspan x="0" y="0">0</tspan></text>
    <text class="cls-13" transform="translate(172.24 164.35) scale(.97 1)"><tspan x="0" y="0">4</tspan></text>
    <text class="cls-14" transform="translate(162.69 160.01) scale(.93 .95) skewX(-18.43)"><tspan x="0" y="0">ω</tspan></text>
    <g>
      <text class="cls-13" transform="translate(203.44 180.88) scale(.97 1)"><tspan x="0" y="0">1</tspan></text>
      <text class="cls-13" transform="translate(203.1 191.45) scale(.97 1)"><tspan x="0" y="0">4</tspan></text>
      <text class="cls-14" transform="translate(193.55 187.11) scale(.93 .95) skewX(-18.43)"><tspan x="0" y="0">ω</tspan></text>
    </g>
    <g>
      <text class="cls-13" transform="translate(263.22 16.8) scale(.97 1)"><tspan x="0" y="0">1</tspan></text>
      <text class="cls-13" transform="translate(262.88 27.38) scale(.97 1)"><tspan x="0" y="0">8</tspan></text>
      <text class="cls-14" transform="translate(253.33 23.03) scale(.93 .95) skewX(-18.43)"><tspan x="0" y="0">ω</tspan></text>
    </g>
    <g>
      <text class="cls-13" transform="translate(261.91 69.49) scale(.97 1)"><tspan x="0" y="0">0</tspan></text>
      <text class="cls-13" transform="translate(261.57 80.06) scale(.97 1)"><tspan x="0" y="0">8</tspan></text>
      <text class="cls-14" transform="translate(252.02 75.72) scale(.93 .95) skewX(-18.43)"><tspan x="0" y="0">ω</tspan></text>
    </g>
    <g>
      <text class="cls-13" transform="translate(262.24 123.52) scale(.97 1)"><tspan x="0" y="0">3</tspan></text>
      <text class="cls-13" transform="translate(261.9 134.09) scale(.97 1)"><tspan x="0" y="0">8</tspan></text>
      <text class="cls-14" transform="translate(252.35 129.75) scale(.93 .95) skewX(-18.43)"><tspan x="0" y="0">ω</tspan></text>
    </g>
    <g>
      <text class="cls-13" transform="translate(263.22 178.39) scale(.97 1)"><tspan x="0" y="0">4</tspan></text>
      <text class="cls-13" transform="translate(262.88 188.96) scale(.97 1)"><tspan x="0" y="0">8</tspan></text>
      <text class="cls-14" transform="translate(253.33 184.62) scale(.93 .95) skewX(-18.43)"><tspan x="0" y="0">ω</tspan></text>
    </g>
    <text class="cls-16" transform="translate(81.51 212.9)"><tspan x="0" y="0">第一轮</tspan></text>
    <text class="cls-16" transform="translate(205.96 213.94)"><tspan x="0" y="0">第二轮</tspan></text>
    <text class="cls-16" transform="translate(294.05 212.9)"><tspan x="0" y="0">第三轮</tspan></text>
    <g>
      <rect class="cls-2" x="138.83" y="83.64" width="20.15" height="115.85"/>
      <line class="cls-6" x1="139.29" y1="88.06" x2="158.31" y2="194.65"/>
      <line class="cls-6" x1="139.37" y1="194.65" x2="158.02" y2="87.82"/>
      <g>
        <line class="cls-6" x1="119.36" y1="183.18" x2="133.25" y2="183.09"/>
        <polygon class="cls-11" points="130.46 186.81 132.01 183.1 130.41 179.41 139.22 183.05 130.46 186.81"/>
      </g>
    </g>
    <g>
      <rect class="cls-2" x="107.34" y="57.17" width="20.15" height="115.85"/>
      <line class="cls-6" x1="107.8" y1="61.54" x2="126.82" y2="168.13"/>
      <line class="cls-6" x1="107.88" y1="168.13" x2="126.53" y2="61.3"/>
      <g>
        <line class="cls-6" x1="87.87" y1="156.67" x2="101.75" y2="156.57"/>
        <polygon class="cls-11" points="98.97 160.29 100.52 156.58 98.92 152.89 107.72 156.53 98.97 160.29"/>
      </g>
    </g>
    <g>
      <rect class="cls-2" x="44.6" y="4.25" width="20.15" height="115.85"/>
      <line class="cls-6" x1="45.06" y1="8.66" x2="64.08" y2="115.25"/>
      <line class="cls-6" x1="45.14" y1="115.25" x2="63.79" y2="8.42"/>
      <g>
        <line class="cls-6" x1="25.13" y1="103.79" x2="39.01" y2="103.7"/>
        <polygon class="cls-11" points="36.23 107.42 37.78 103.7 36.18 100.01 44.98 103.66 36.23 107.42"/>
      </g>
    </g>
    <g>
      <rect class="cls-2" x="75.85" y="30.71" width="20.15" height="115.85"/>
      <line class="cls-6" x1="76.31" y1="35.02" x2="95.33" y2="141.61"/>
      <line class="cls-6" x1="76.39" y1="141.61" x2="95.03" y2="34.78"/>
      <g>
        <line class="cls-6" x1="56.38" y1="130.15" x2="70.26" y2="130.05"/>
        <polygon class="cls-11" points="67.48 133.78 69.03 130.06 67.43 126.37 76.23 130.01 67.48 133.78"/>
      </g>
    </g>
    <g>
      <g>
        <line class="cls-5" x1="14.19" y1="88.11" x2="30.03" y2="88.11"/>
        <path class="cls-10" d="M28.24,88.11l-2.19-3.6.12-.08,5.88,2.33c2.05.45,4.09.9,6.14,1.35-2.05.45-4.09.9-6.14,1.35l-5.88,2.33-.12-.06,2.19-3.62Z"/>
      </g>
      <g>
        <line class="cls-5" x1="36.11" y1="88.11" x2="348.82" y2="88.11"/>
        <path class="cls-10" d="M347.02,88.11l-2.19-3.6.12-.08,5.88,2.33c2.05.45,4.09.9,6.14,1.35-2.05.45-4.09.9-6.14,1.35l-5.88,2.33-.12-.06,2.19-3.62Z"/>
      </g>
    </g>
    <line class="cls-5" x1="36.07" y1="61.44" x2="44.37" y2="61.44"/>
    <g>
      <line class="cls-5" x1="14.14" y1="61.44" x2="29.99" y2="61.44"/>
      <path class="cls-10" d="M28.2,61.44l-2.19-3.6.12-.08,5.88,2.33c2.05.45,4.09.9,6.14,1.35-2.05.45-4.09.9-6.14,1.35l-5.88,2.33-.12-.06,2.19-3.62Z"/>
    </g>
    <polyline class="cls-5" points="65.2 61.44 65.79 61.44 67.44 61.44 75.4 61.44"/>
    <line class="cls-5" x1="96.55" y1="61.44" x2="228.08" y2="61.44"/>
    <line class="cls-5" x1="96.66" y1="115.1" x2="106.86" y2="115.1"/>
    <line class="cls-5" x1="128.05" y1="115.47" x2="138.25" y2="115.47"/>
    <g>
      <g>
        <line class="cls-5" x1="14.06" y1="194.77" x2="29.91" y2="194.77"/>
        <path class="cls-10" d="M28.11,194.77l-2.19-3.6.12-.08,5.88,2.33c2.05.45,4.09.9,6.14,1.35-2.05.45-4.09.9-6.14,1.35l-5.88,2.33-.12-.06,2.19-3.62Z"/>
      </g>
      <g>
        <line class="cls-5" x1="35.98" y1="194.77" x2="348.82" y2="193.27"/>
        <path class="cls-10" d="M347.02,193.27l-2.21-3.59.12-.08,5.89,2.31c2.05.44,4.1.88,6.15,1.32-2.04.46-4.09.92-6.13,1.38l-5.86,2.36-.12-.06,2.17-3.63Z"/>
      </g>
    </g>
    <g>
      <g>
        <line class="cls-5" x1="14.02" y1="168.11" x2="29.86" y2="168.11"/>
        <path class="cls-10" d="M28.07,168.11l-2.19-3.6.12-.08,5.88,2.33c2.05.45,4.09.9,6.14,1.35-2.05.45-4.09.9-6.14,1.35l-5.88,2.33-.12-.06,2.19-3.62Z"/>
      </g>
      <line class="cls-5" x1="35.94" y1="168.11" x2="137.92" y2="168.11"/>
    </g>
    <g>
      <g>
        <line class="cls-5" x1="13.97" y1="141.44" x2="29.82" y2="141.44"/>
        <path class="cls-10" d="M28.03,141.44l-2.19-3.6.12-.08,5.88,2.33c2.05.45,4.09.9,6.14,1.35-2.05.45-4.09.9-6.14,1.35l-5.88,2.33-.12-.06,2.19-3.62Z"/>
      </g>
      <line class="cls-5" x1="35.9" y1="141.44" x2="107.34" y2="141.44"/>
    </g>
    <g>
      <g>
        <g>
          <line class="cls-5" x1="14.1" y1="114.77" x2="29.95" y2="114.77"/>
          <path class="cls-10" d="M28.15,114.77l-2.19-3.6.12-.08,5.88,2.33c2.05.45,4.09.9,6.14,1.35-2.05.45-4.09.9-6.14,1.35l-5.88,2.33-.12-.06,2.19-3.62Z"/>
        </g>
        <line class="cls-5" x1="36.03" y1="114.77" x2="74.95" y2="114.77"/>
      </g>
      <g>
        <line class="cls-5" x1="14.27" y1="34.77" x2="30.12" y2="34.77"/>
        <path class="cls-10" d="M28.32,34.77l-2.19-3.6.12-.08,5.88,2.33c2.05.45,4.09.9,6.14,1.35-2.05.45-4.09.9-6.14,1.35l-5.88,2.33-.12-.06,2.19-3.62Z"/>
      </g>
      <line class="cls-5" x1="36.2" y1="34.77" x2="44.49" y2="34.77"/>
    </g>
    <g>
      <g>
        <line class="cls-5" x1="14.23" y1="8.11" x2="30.08" y2="8.11"/>
        <path class="cls-10" d="M28.28,8.11l-2.19-3.6.12-.08,5.88,2.33c2.05.45,4.09.9,6.14,1.35-2.05.45-4.09.9-6.14,1.35l-5.88,2.33-.12-.06,2.19-3.62Z"/>
      </g>
      <g>
        <line class="cls-5" x1="36.15" y1="8.11" x2="348.82" y2="8.11"/>
        <path class="cls-10" d="M347.02,8.11l-2.19-3.6.12-.08,5.88,2.33c2.05.45,4.09.9,6.14,1.35-2.05.45-4.09.9-6.14,1.35l-5.88,2.33-.12-.06,2.19-3.62Z"/>
      </g>
    </g>
    <line class="cls-5" x1="128.05" y1="141.79" x2="138.25" y2="141.79"/>
    <line class="cls-5" x1="65.2" y1="34.77" x2="196.09" y2="35.69"/>
    <line class="cls-5" x1="158.98" y1="141.79" x2="196.09" y2="141.79"/>
    <g>
      <line class="cls-5" x1="159.58" y1="115.47" x2="348.82" y2="115.47"/>
      <path class="cls-10" d="M347.02,115.47l-2.19-3.6.12-.08,5.88,2.33c2.05.45,4.09.9,6.14,1.35-2.05.45-4.09.9-6.14,1.35l-5.88,2.33-.12-.06,2.19-3.62Z"/>
    </g>
    <line class="cls-5" x1="159.28" y1="168.28" x2="227.82" y2="168.28"/>
    <g>
      <line class="cls-5" x1="216.24" y1="35.7" x2="348.82" y2="35.7"/>
      <path class="cls-10" d="M347.02,35.7l-2.19-3.6.12-.08,5.88,2.33c2.05.45,4.09.9,6.14,1.35-2.05.45-4.09.9-6.14,1.35l-5.88,2.33-.12-.06,2.19-3.62Z"/>
    </g>
    <g>
      <line class="cls-5" x1="216.24" y1="141.12" x2="348.82" y2="141.12"/>
      <path class="cls-10" d="M347.02,141.12l-2.19-3.6.12-.08,5.88,2.33c2.05.45,4.09.9,6.14,1.35-2.05.45-4.09.9-6.14,1.35l-5.88,2.33-.12-.06,2.19-3.62Z"/>
    </g>
    <g>
      <line class="cls-5" x1="248.23" y1="167.83" x2="348.82" y2="167.83"/>
      <path class="cls-10" d="M347.02,167.83l-2.19-3.6.12-.08,5.88,2.33c2.05.45,4.09.9,6.14,1.35-2.05.45-4.09.9-6.14,1.35l-5.88,2.33-.12-.06,2.19-3.62Z"/>
    </g>
    <g>
      <line class="cls-5" x1="248.23" y1="61.44" x2="348.82" y2="61.44"/>
      <path class="cls-10" d="M347.02,61.44l-2.19-3.6.12-.08,5.88,2.33c2.05.45,4.09.9,6.14,1.35-2.05.45-4.09.9-6.14,1.35l-5.88,2.33-.12-.06,2.19-3.62Z"/>
    </g>
  </g>
</svg>