<?xml version="1.0" standalone="no"?>
<!DOCTYPE svg PUBLIC "-//W3C//DTD SVG 20010904//EN"
 "http://www.w3.org/TR/2001/REC-SVG-20010904/DTD/svg10.dtd">
<svg version="1.0" xmlns="http://www.w3.org/2000/svg"
 width="1200.000000pt" height="1200.000000pt" viewBox="0 0 1200.000000 1200.000000"
 preserveAspectRatio="xMidYMid meet">
<metadata>
Created by potrace 1.14, written by Peter Selinger 2001-2017
</metadata>
<g transform="translate(0.000000,1200.000000) scale(0.100000,-0.100000)"
fill="#000000" stroke="none">
<path d="M0 10199 l0 -1801 43 34 c23 19 74 58 112 87 123 91 129 96 159 122
39 34 42 63 40 375 -1 144 1 273 3 288 10 49 21 26 21 -41 -1 -38 11 -140 27
-227 44 -255 56 -274 123 -184 22 29 60 73 85 98 25 24 43 48 41 52 -3 4 0 8
5 8 6 0 32 21 59 48 63 63 161 145 182 154 10 3 20 13 23 22 4 9 31 32 61 51
30 19 59 41 63 48 4 7 19 20 33 29 14 9 40 30 59 47 37 33 51 37 67 21 7 -7
21 13 44 60 19 38 39 70 45 70 6 0 19 15 30 33 27 44 26 138 -3 352 -13 94
-28 204 -33 245 -6 41 -9 179 -7 306 3 200 5 234 20 250 9 11 18 38 20 62 2
23 8 43 13 45 6 1 13 -87 17 -238 4 -132 12 -298 17 -370 40 -492 43 -514 60
-516 3 0 13 -2 22 -4 9 -1 35 15 59 36 24 22 50 39 57 39 8 0 11 5 8 10 -3 6
2 13 12 17 21 8 43 28 43 40 0 5 15 16 33 26 17 10 48 32 68 50 20 18 47 39
59 47 13 8 40 32 61 53 29 29 46 38 66 36 43 -5 58 11 83 79 12 34 27 62 31
62 5 0 9 7 9 15 0 8 4 15 9 15 5 0 23 21 39 48 49 74 83 97 109 71 18 -18 28
-5 54 71 13 39 32 80 42 90 9 11 17 22 17 25 0 4 20 31 45 62 25 30 45 59 45
64 0 5 25 33 55 64 30 30 55 59 55 65 0 6 4 9 9 6 10 -6 21 16 21 41 0 9 7 21
16 27 13 10 21 29 23 60 1 5 9 2 18 -5 11 -10 14 -10 9 -2 -4 8 2 17 18 24 14
7 28 20 32 31 3 10 8 16 12 14 10 -5 32 20 25 28 -4 3 1 6 9 6 15 0 33 26 29
43 -1 5 3 6 9 2 15 -9 42 15 36 32 -5 11 -1 11 16 2 18 -10 20 -9 15 5 -4 9
-3 15 1 14 4 -1 17 3 30 10 12 7 26 11 31 8 4 -3 8 1 8 9 0 8 -4 12 -9 9 -4
-3 -5 3 -1 12 6 16 7 16 18 0 11 -15 13 -15 18 4 4 17 20 23 54 19 4 0 11 10
17 23 7 19 10 20 13 6 2 -9 13 -20 24 -23 11 -4 17 -10 14 -15 -3 -4 3 -7 12
-6 21 3 31 45 62 251 22 143 74 339 97 364 11 12 14 9 20 -15 l8 -29 6 30 c6
29 6 28 33 -30 16 -33 38 -89 49 -125 25 -78 88 -214 95 -206 13 13 25 114 33
286 5 112 14 204 23 233 l15 47 -1739 0 -1739 0 0 -1801z m1611 289 c9 -18 26
-210 28 -330 1 -28 -21 -39 -34 -18 -23 37 -43 270 -29 339 8 36 19 39 35 9z"/>
<path d="M3516 11989 c4 -7 11 -66 15 -133 9 -132 27 -204 57 -234 20 -20 20
-20 53 9 18 16 36 29 39 29 4 0 17 9 30 20 12 11 27 17 31 14 5 -3 9 -2 9 3 0
13 61 44 72 36 7 -3 8 -1 4 5 -4 7 4 14 21 18 15 4 43 20 61 36 18 15 38 28
45 28 7 0 25 11 41 25 16 14 34 25 40 25 6 0 25 13 43 28 18 15 50 38 73 52
80 48 69 50 -301 50 -251 0 -338 -3 -333 -11z"/>
<path d="M4950 11981 c-7 -11 -17 -18 -21 -15 -4 2 -10 -5 -14 -16 -3 -11 -10
-20 -15 -20 -5 0 -25 -16 -44 -35 -20 -19 -38 -35 -40 -35 -3 0 -24 -18 -48
-40 -24 -21 -54 -45 -68 -52 -14 -7 -29 -19 -33 -25 -4 -7 -15 -13 -22 -13 -8
0 -14 -5 -13 -12 2 -7 -2 -12 -9 -13 -6 0 -20 -8 -30 -17 -49 -46 -64 -58 -71
-58 -5 0 -20 -12 -34 -27 -14 -16 -34 -35 -44 -44 -32 -26 -84 -88 -84 -99 0
-5 -4 -10 -10 -10 -5 0 -10 -5 -10 -10 0 -6 -10 -21 -22 -33 -13 -12 -24 -28
-26 -36 -5 -25 -63 -91 -78 -91 -9 0 -13 -4 -10 -9 3 -5 -3 -11 -14 -14 -11
-3 -23 -13 -26 -24 -4 -10 -20 -30 -36 -46 -23 -21 -29 -34 -26 -60 2 -25 8
-32 25 -33 12 -1 22 2 21 5 -2 20 3 41 10 37 4 -2 14 1 23 7 15 11 19 18 19
35 0 4 4 1 9 -7 7 -11 11 -9 20 8 7 11 21 21 31 21 11 0 20 5 20 11 0 5 5 7
12 3 8 -5 9 -2 5 10 -4 10 -2 16 6 15 30 -4 47 2 47 16 0 9 8 19 18 22 9 4 27
17 40 30 12 13 22 21 22 18 0 -4 14 5 31 19 17 14 34 26 38 26 5 0 19 10 33
23 14 12 39 33 56 47 17 14 31 30 32 36 0 6 16 18 35 27 19 9 35 22 35 29 0 6
3 9 6 5 3 -3 16 3 28 14 28 27 72 50 80 42 3 -4 6 -1 6 5 0 7 7 12 15 12 8 0
15 5 15 10 0 6 9 10 20 10 11 0 20 5 20 10 0 6 7 10 16 10 8 0 12 5 9 10 -3 6
0 10 8 10 7 0 31 13 53 30 21 16 44 30 50 30 7 0 19 11 28 25 9 14 23 25 31
25 15 0 38 33 30 44 -3 3 -2 4 1 2 8 -6 33 17 28 26 -3 4 5 12 16 18 11 6 18
15 15 21 -4 5 0 9 8 9 14 0 23 12 25 33 1 4 8 15 17 23 8 9 15 22 15 30 0 11
-24 14 -133 14 -120 0 -134 -2 -147 -19z m-773 -805 c0 -8 -6 -12 -15 -9 -11
5 -11 7 0 14 7 5 13 9 14 9 0 0 1 -6 1 -14z m-37 -26 c0 -5 -5 -10 -11 -10 -5
0 -7 5 -4 10 3 6 8 10 11 10 2 0 4 -4 4 -10z"/>
<path d="M5707 11980 c-29 -23 -42 -26 -31 -7 6 9 5 9 -7 0 -8 -6 -31 -14 -52
-18 -32 -6 -40 -13 -57 -53 -11 -25 -37 -62 -58 -81 -20 -20 -43 -45 -50 -56
-7 -11 -10 -14 -6 -7 5 11 2 11 -17 0 -13 -7 -27 -17 -30 -21 -3 -5 -9 -8 -13
-8 -18 2 -35 -14 -46 -40 -7 -16 -16 -27 -20 -24 -4 2 -19 -9 -33 -26 -14 -17
-30 -28 -36 -25 -7 4 -8 1 -5 -8 3 -9 2 -16 -3 -16 -6 0 -31 -20 -56 -45 -26
-25 -51 -45 -56 -45 -6 0 -13 -5 -17 -12 -5 -7 -3 -8 6 -3 7 4 2 -6 -11 -24
-12 -17 -29 -31 -36 -31 -7 0 -13 -5 -13 -10 0 -14 -51 -59 -67 -60 -7 0 -12
-4 -10 -9 1 -5 -2 -9 -6 -10 -4 0 -38 -32 -75 -71 -37 -38 -71 -70 -76 -70 -7
0 -100 -76 -144 -117 -7 -7 -17 -13 -21 -13 -4 0 -17 -9 -29 -20 -12 -12 -22
-19 -22 -16 0 6 -43 -31 -80 -66 -15 -16 -30 -28 -34 -28 -4 0 -21 -16 -39
-35 -17 -19 -36 -35 -40 -35 -5 0 -21 -12 -37 -27 -39 -39 -57 -53 -70 -53 -6
0 -8 -4 -5 -10 3 -5 3 -10 -2 -10 -4 0 -21 -11 -37 -25 -16 -14 -35 -25 -43
-25 -7 0 -13 -4 -13 -9 0 -5 -9 -13 -20 -16 -11 -3 -20 -11 -20 -16 0 -6 -7
-17 -15 -25 -8 -9 -15 -12 -15 -8 0 4 -8 -2 -17 -13 -19 -21 -83 -58 -95 -55
-4 1 -4 -6 -1 -15 4 -11 3 -14 -6 -9 -11 7 -78 -41 -74 -54 1 -4 -9 -5 -22 -2
-15 2 -25 0 -25 -7 0 -7 -22 -26 -50 -43 -27 -17 -47 -35 -43 -41 4 -6 0 -8
-8 -5 -8 3 -23 0 -34 -8 -14 -10 -15 -14 -4 -14 10 -1 9 -4 -5 -15 -10 -8 -24
-12 -29 -8 -6 4 -8 0 -5 -8 4 -10 -1 -15 -16 -17 -11 0 -28 -9 -36 -19 -8 -10
-22 -18 -30 -18 -8 0 -18 -3 -21 -8 -4 -5 -16 0 -27 11 -11 11 -17 23 -14 27
4 3 -1 3 -11 -1 -9 -3 -17 -17 -17 -30 0 -49 76 -227 206 -486 l94 -187 -102
1 c-167 3 -294 -39 -473 -157 -44 -29 -105 -74 -135 -99 -30 -25 -58 -46 -62
-46 -14 0 -27 78 -38 228 -6 84 -13 159 -17 167 -8 23 -31 18 -50 -12 -23 -37
-34 -48 -55 -56 -10 -3 -18 -11 -18 -17 0 -6 -4 -9 -8 -6 -5 3 -15 -4 -22 -15
-8 -10 -20 -19 -27 -19 -7 0 -13 -5 -13 -11 0 -5 -4 -7 -10 -4 -5 3 -10 2 -10
-3 0 -16 -158 -117 -168 -107 -3 2 -15 -7 -28 -20 -13 -14 -30 -25 -39 -25 -9
0 -14 -4 -11 -9 5 -7 -31 -22 -54 -23 -3 0 -13 -5 -24 -10 -41 -22 -73 -20
-94 7 -35 44 -44 33 -37 -47 3 -40 11 -97 16 -125 11 -54 89 -295 127 -389
l21 -52 -69 -74 c-38 -42 -66 -79 -62 -83 4 -5 2 -5 -4 -2 -13 7 -23 -3 -153
-160 -51 -62 -95 -113 -98 -113 -4 0 1 378 12 831 2 86 13 245 25 353 27 235
22 265 -29 190 -28 -40 -110 -124 -122 -124 -4 0 -14 -6 -21 -12 -7 -7 -24
-19 -38 -26 -14 -7 -38 -32 -53 -55 -24 -35 -162 -147 -181 -147 -5 0 -61 -41
-180 -132 -17 -13 -47 -39 -67 -58 -77 -72 -143 -115 -162 -103 -20 12 -60
-24 -103 -93 -25 -40 -59 -83 -76 -96 -16 -13 -36 -29 -44 -36 -7 -7 -16 -12
-19 -12 -4 1 -23 -14 -45 -32 -21 -18 -48 -40 -60 -48 -13 -8 -35 -24 -49 -36
-14 -12 -41 -29 -58 -38 -18 -9 -33 -21 -33 -26 0 -5 -10 -12 -22 -16 -12 -4
-51 -29 -86 -55 -35 -27 -69 -49 -77 -49 -7 0 -34 -21 -60 -46 l-48 -46 6 -87
c4 -64 18 -127 57 -251 43 -138 68 -203 70 -179 1 2 5 90 10 194 9 188 20 263
33 220 6 -21 31 -298 42 -465 3 -52 10 -129 15 -170 5 -41 12 -100 15 -130 11
-97 75 -372 115 -489 28 -83 36 -119 30 -132 -7 -13 -5 -22 6 -34 9 -9 14 -18
12 -21 -11 -11 -98 125 -161 251 -37 76 -97 217 -117 278 -6 21 -26 59 -44 85
-52 77 -51 74 -131 469 -55 271 -69 316 -97 321 -16 3 -91 -68 -153 -145 -33
-41 -86 -100 -182 -202 l-62 -66 -1 -721 0 -721 43 -79 c24 -43 65 -118 91
-166 l48 -88 -37 0 c-20 0 -43 7 -51 15 -9 8 -33 15 -55 15 l-39 0 0 -2984 0
-2985 33 10 c17 5 93 16 167 25 74 9 155 19 179 24 l43 8 -4 -114 -3 -114 152
0 153 0 0 44 c0 24 3 58 6 75 9 42 25 28 60 -54 l27 -65 60 0 c52 0 59 2 54
18 -2 9 -16 57 -31 106 -33 111 -33 116 2 116 27 0 30 -5 69 -117 l40 -118
1962 -3 1962 -2 -7 22 c-3 13 -26 61 -49 108 -70 143 -125 293 -125 343 0 13
14 51 30 83 17 32 46 113 66 179 34 113 37 133 49 360 12 218 31 358 54 403 4
9 14 42 21 72 16 71 68 236 87 277 23 50 55 57 159 37 49 -10 139 -18 201 -18
112 -1 112 -1 116 -26 3 -20 5 -18 7 10 2 20 6 2 10 -45 4 -44 11 -99 15 -122
l8 -43 -84 1 c-52 0 -76 3 -64 8 15 6 6 11 -40 20 -56 11 -122 29 -170 46
l-20 8 20 -20 c42 -42 177 -81 290 -84 l70 -2 -55 -6 -55 -6 90 -13 c50 -7
106 -17 125 -22 19 -5 111 -15 205 -22 101 -8 156 -15 135 -18 -28 -5 -18 -8
45 -14 44 -4 87 -12 97 -17 9 -5 60 -16 115 -24 54 -8 116 -19 138 -25 22 -5
55 -10 73 -10 17 0 32 -3 32 -7 0 -5 -29 -41 -65 -82 -69 -79 -116 -154 -189
-298 -55 -111 -70 -149 -213 -548 -14 -38 -50 -155 -80 -260 -30 -104 -59
-202 -63 -217 l-9 -28 525 0 525 0 107 49 c59 27 228 111 375 186 147 75 275
135 284 133 10 -2 53 -74 109 -183 l93 -180 238 -3 238 -3 -127 258 c-70 142
-149 314 -177 383 -27 69 -93 214 -145 324 -53 109 -104 214 -113 235 -28 58
-107 183 -159 252 -41 53 -62 70 -121 99 -65 31 -89 50 -64 50 18 0 222 122
671 400 113 70 233 142 268 159 34 17 62 33 62 36 0 11 -154 -68 -255 -130
-60 -38 -115 -68 -122 -68 -7 0 -10 -4 -7 -8 2 -4 0 -10 -5 -13 -5 -4 -12 -2
-16 4 -3 6 8 18 25 28 17 9 64 38 104 64 79 50 248 140 297 157 23 8 28 7 24
-2 -4 -7 -1 -5 7 4 14 16 27 23 172 96 49 24 86 46 83 49 -4 4 -86 -29 -141
-58 -12 -7 -16 -7 -12 0 10 16 138 73 153 68 12 -5 76 20 168 64 22 11 120 55
219 99 98 44 186 86 195 94 9 8 27 18 40 22 22 7 74 38 116 70 10 8 23 15 27
15 4 0 8 4 8 8 0 5 -21 9 -47 9 -39 0 -44 -2 -25 -10 12 -6 22 -13 22 -17 0
-9 -37 -20 -69 -20 -19 0 -21 -3 -12 -14 10 -12 6 -15 -17 -21 -32 -7 -82 2
-82 15 0 5 15 12 33 16 27 6 29 8 12 14 -17 6 -14 10 23 29 103 53 219 62 312
25 45 -18 170 -146 170 -173 0 -20 -63 -122 -182 -294 -188 -272 -261 -360
-537 -652 -118 -125 -126 -135 -110 -135 59 0 483 343 747 604 l122 121 0 -72
c0 -82 20 -283 51 -498 36 -259 49 -379 43 -400 -11 -38 -61 -155 -178 -415
-35 -80 -72 -163 -81 -185 -8 -22 -51 -103 -93 -180 -82 -150 -106 -178 -302
-353 -52 -47 -95 -90 -95 -96 0 -6 -6 -12 -12 -12 -7 -1 -18 -2 -23 -3 -6 0
-9 -6 -8 -13 2 -7 -2 -12 -9 -13 -6 0 -15 -3 -19 -7 -4 -5 51 -8 122 -8 l130
0 35 36 c18 20 75 63 124 97 124 83 473 325 512 354 17 13 34 20 37 15 4 -7
67 -251 119 -460 l10 -42 166 0 166 1 61 77 c34 42 68 87 75 100 17 28 29 28
117 -3 58 -20 91 -25 173 -25 93 0 100 -1 88 -16 -22 -27 -79 -60 -170 -98
l-84 -35 185 0 185 -1 18 77 c10 42 22 83 27 92 36 68 81 182 130 331 164 492
211 623 242 681 49 90 104 186 139 239 29 46 40 67 67 130 47 114 90 199 109
218 11 11 13 840 13 4605 0 2657 -4 4586 -9 4578 -5 -8 -18 -12 -29 -9 -14 4
-23 0 -27 -11 -6 -14 -8 -14 -21 3 -14 19 -14 19 -14 -1 0 -12 -5 -25 -12 -29
-7 -4 -8 -3 -4 4 4 7 2 20 -4 29 -11 17 -11 17 -6 -1 6 -16 4 -17 -9 -6 -8 7
-12 16 -9 21 3 5 -1 9 -9 9 -8 0 -17 9 -20 20 -3 12 0 20 8 20 7 0 15 6 18 14
4 10 0 12 -16 8 -21 -5 -21 -5 -4 12 19 20 23 31 6 20 -8 -5 -8 -1 0 13 6 11
8 23 4 26 -3 3 2 13 11 22 9 9 16 25 16 36 0 10 5 19 11 19 5 0 7 5 3 11 -3 6
-2 14 5 18 6 4 12 19 13 34 1 15 6 27 10 27 4 0 8 7 8 16 0 16 36 83 50 94 26
20 30 63 30 339 l0 291 -1171 0 -1172 0 7 -212 c4 -117 9 -266 12 -330 2 -75
0 -118 -6 -118 -5 0 -10 19 -11 43 -3 165 -21 373 -35 404 -8 17 -14 41 -14
53 0 11 -7 52 -16 91 -13 56 -19 69 -35 69 -10 0 -19 -7 -19 -15 0 -19 -28
-49 -52 -58 -35 -13 -17 -131 71 -457 16 -58 34 -135 41 -173 13 -73 26 -90
46 -63 16 23 46 17 51 -9 7 -32 12 -101 33 -445 11 -179 22 -345 24 -369 2
-24 1 -52 -1 -62 -5 -16 -7 -17 -20 -3 -9 9 -23 63 -33 132 -33 210 -81 423
-130 571 -72 217 -67 207 -89 187 -19 -17 -20 -16 -30 36 -5 29 -15 102 -21
163 -15 146 -48 306 -67 328 -22 23 -58 21 -83 -5 -11 -12 -20 -25 -20 -30 0
-4 -7 -8 -15 -8 -8 0 -15 -7 -15 -15 0 -14 -12 -19 -32 -16 -5 0 -8 -3 -8 -9
0 -16 -94 -81 -111 -77 -12 3 -16 0 -12 -9 4 -12 -1 -14 -25 -9 -20 3 -36 0
-46 -10 -13 -14 -16 -13 -30 7 -22 31 -20 74 4 91 11 8 17 16 14 19 -9 9 26
70 51 90 15 11 22 27 21 42 -2 16 6 31 25 47 19 16 25 27 18 35 -6 8 -4 16 8
25 11 9 14 10 9 2 -4 -7 -2 -13 3 -13 6 0 11 11 11 24 0 14 5 28 10 31 15 9
12 25 -5 25 -8 0 -15 -6 -15 -12 0 -9 -2 -10 -8 -2 -11 18 -49 11 -72 -13 -12
-14 -27 -20 -38 -17 -10 4 -13 2 -7 -3 6 -4 11 -14 13 -22 3 -12 0 -12 -12 -1
-13 10 -16 10 -16 -4 0 -10 -9 -16 -24 -16 -14 0 -28 -4 -31 -10 -11 -18 -56
-11 -74 12 l-18 21 -12 -33 c-6 -20 -48 -70 -99 -120 -48 -47 -100 -102 -115
-123 -16 -21 -39 -48 -53 -62 -13 -13 -24 -27 -24 -30 0 -4 -21 -26 -47 -48
-125 -110 -130 -124 -113 -304 11 -120 9 -183 -7 -250 -14 -58 -53 1 -53 81
-1 58 -34 234 -47 247 -8 8 -18 6 -36 -6 -29 -18 -117 -122 -117 -137 0 -5 -3
-7 -7 -5 -5 3 -14 -1 -21 -9 -7 -8 -11 -14 -8 -14 2 0 -41 -45 -95 -100 -54
-54 -99 -105 -99 -111 0 -7 -3 -10 -6 -7 -3 3 -61 -49 -128 -116 -158 -155
-210 -198 -271 -225 -27 -12 -57 -31 -67 -41 -12 -13 -32 -20 -57 -20 -44 0
-71 -24 -71 -63 0 -29 -71 -140 -123 -192 -18 -18 -43 -47 -57 -65 -14 -19
-42 -54 -63 -78 -21 -25 -46 -57 -55 -71 -9 -14 -35 -46 -57 -69 -22 -24 -44
-51 -50 -60 -13 -21 -157 -218 -184 -252 -11 -14 -33 -41 -48 -60 -26 -33
-125 -139 -184 -199 -45 -44 -73 -65 -102 -78 -21 -9 -28 -18 -25 -35 2 -17
14 -25 49 -34 114 -28 365 -169 490 -274 116 -98 321 -300 386 -382 21 -26 41
-47 45 -48 24 -1 37 58 52 240 18 215 18 220 29 237 10 15 151 94 197 110 30
10 18 12 -90 10 l-125 -2 -3 29 c-2 16 1 26 6 22 6 -3 12 4 15 17 11 50 7 307
-7 469 -8 95 -20 263 -26 373 -6 110 -18 240 -26 288 -9 48 -14 100 -12 115 3
24 8 27 47 30 24 2 48 -1 52 -5 22 -22 153 -822 184 -1123 4 -36 11 -72 16
-81 11 -21 201 -149 221 -149 8 0 26 -8 39 -18 32 -24 148 -90 349 -197 91
-49 177 -97 191 -106 14 -10 86 -53 160 -95 74 -42 155 -92 180 -110 42 -30
119 -70 119 -61 0 2 11 59 24 128 27 133 60 324 71 402 l6 48 42 -32 c23 -18
50 -41 60 -53 11 -12 49 -52 86 -91 275 -288 467 -534 544 -695 61 -127 78
-132 96 -27 7 39 19 101 27 137 40 185 84 631 90 915 3 110 7 216 10 235 l6
35 23 -55 c12 -30 26 -80 30 -110 20 -156 28 -895 10 -942 -4 -9 8 -33 29 -59
100 -125 226 -335 295 -489 23 -52 51 -113 61 -135 23 -47 60 -162 60 -187 0
-15 -4 -16 -32 -6 -18 7 -40 18 -48 26 -8 9 -38 26 -67 39 -48 22 -93 63 -93
84 0 5 15 9 33 9 17 0 57 3 87 7 69 8 42 21 -47 22 -68 1 -118 15 -108 31 3 5
-4 10 -17 11 -101 4 -122 8 -168 32 -29 15 -58 27 -65 27 -8 0 -26 11 -42 24
l-28 24 28 13 c15 7 27 16 27 20 0 4 19 18 43 32 23 14 51 35 62 48 l20 22
-31 -22 c-17 -13 -40 -21 -50 -18 -15 3 -11 8 18 20 20 9 40 22 44 28 4 6 -32
-9 -80 -35 -86 -45 -87 -46 -190 -47 -100 -1 -109 1 -272 54 -174 57 -434 118
-584 137 -46 5 -151 10 -232 10 -147 0 -148 0 -220 -34 -40 -19 -129 -54 -198
-78 -123 -43 -268 -117 -450 -230 -84 -53 -163 -108 -135 -95 6 2 18 2 27 -2
13 -5 0 -20 -57 -68 -40 -35 -77 -63 -82 -63 -4 -1 -26 -17 -48 -36 -23 -20
-30 -31 -17 -24 13 6 33 10 45 8 20 -3 19 -5 -11 -21 -18 -10 -38 -15 -44 -11
-7 4 -8 3 -4 -5 4 -7 -5 -18 -23 -29 -17 -9 -31 -20 -31 -24 0 -4 46 22 103
59 405 262 670 355 1022 357 224 1 367 -22 710 -115 283 -78 518 -174 687
-282 31 -21 61 -37 67 -37 5 0 28 -17 51 -38 34 -30 48 -37 72 -34 19 3 27 9
24 18 -13 34 23 21 119 -43 57 -37 104 -71 104 -76 2 -20 -130 -371 -191 -509
-175 -397 -350 -655 -596 -878 -59 -53 -79 -77 -72 -85 13 -16 -29 -44 -72
-50 -38 -5 -45 -11 -19 -20 45 -14 257 152 467 366 233 237 370 408 491 611
207 345 257 438 286 521 13 36 27 15 27 -40 0 -71 -51 -380 -85 -523 -15 -58
-35 -143 -46 -190 -47 -196 -138 -491 -194 -625 -88 -212 -255 -523 -358 -665
-22 -30 -86 -102 -141 -159 -56 -57 -95 -101 -88 -97 7 4 12 1 12 -8 0 -9 -6
-16 -14 -16 -8 0 -16 -7 -20 -15 -5 -13 -2 -13 25 0 16 9 27 20 24 25 -3 5 0
12 6 16 8 4 9 3 5 -4 -15 -25 11 -10 100 58 97 74 288 249 280 257 -2 3 8 17
23 31 23 23 23 24 2 7 -14 -11 13 18 60 65 47 47 119 132 160 190 106 149 249
393 306 520 26 61 51 110 55 110 12 0 9 -67 -12 -278 -25 -243 -37 -321 -54
-347 -9 -14 -10 -27 -4 -45 15 -38 0 -198 -32 -358 -17 -79 -33 -150 -38 -158
-7 -12 -19 -3 -60 40 -29 30 -52 62 -52 70 0 8 9 39 20 67 12 28 18 54 15 57
-3 3 -5 -1 -5 -8 0 -7 -3 -11 -6 -8 -3 3 2 34 11 68 9 34 14 67 12 73 -6 20
-45 -153 -39 -176 3 -12 1 -19 -3 -15 -4 4 -27 -50 -50 -120 -67 -200 -183
-440 -313 -644 -34 -54 -58 -98 -54 -98 4 0 0 -6 -9 -13 -13 -11 -68 -85 -149
-206 -37 -55 -77 -100 -84 -95 -3 2 -4 1 -1 -2 12 -17 -331 -366 -550 -560
-194 -172 -221 -196 -178 -165 58 44 64 21 6 -26 -25 -21 -66 -55 -89 -76 -45
-41 -80 -43 -47 -4 l18 22 -22 -19 c-16 -13 -20 -23 -13 -31 7 -8 -11 -31 -64
-78 -41 -37 -77 -67 -79 -67 -12 0 1 32 24 57 13 15 -2 5 -33 -22 -32 -27 -58
-51 -58 -53 0 -3 9 3 20 13 15 13 24 15 31 8 13 -13 -145 -138 -162 -128 -6 5
-6 12 3 23 7 9 -25 -13 -72 -49 -47 -36 -138 -102 -202 -148 -65 -45 -118 -85
-118 -87 0 -3 35 19 78 49 98 68 99 69 106 58 4 -5 -38 -40 -91 -77 -54 -37
-142 -100 -195 -140 -127 -97 -230 -163 -413 -266 -82 -47 -184 -104 -225
-128 -131 -76 -473 -237 -527 -249 -55 -11 -88 -4 -403 83 -99 28 -239 60
-325 76 -28 5 -73 16 -100 25 -28 8 -61 15 -75 15 -14 0 -52 7 -85 15 -32 9
-93 20 -134 26 -42 5 -94 16 -116 23 -22 8 -62 17 -90 21 -109 14 -247 54
-238 68 4 7 -1 8 -12 4 -9 -4 -23 -3 -29 2 -6 5 -29 11 -51 13 -22 2 -45 7
-50 10 -6 3 -36 9 -67 12 -77 10 -280 64 -289 77 -3 6 -9 10 -13 10 -31 -4
-56 1 -50 10 4 8 -1 9 -16 4 -15 -5 -20 -4 -16 3 7 12 -55 28 -88 23 -12 -2
-16 1 -11 9 5 9 1 10 -15 5 -17 -5 -21 -4 -15 5 5 9 4 11 -4 6 -17 -11 -63 2
-56 15 4 6 -4 8 -22 4 -21 -5 -24 -4 -13 4 9 6 10 11 3 11 -6 0 -20 3 -30 6
-15 5 -15 4 -3 -5 18 -13 3 -13 -25 -1 -14 6 -15 9 -5 10 9 1 6 5 -8 10 -12 5
-30 6 -39 3 -11 -4 -14 -3 -9 5 7 11 -7 16 -41 15 -7 -1 -13 3 -13 7 0 11 -71
35 -90 31 -8 -2 -12 0 -8 4 9 9 -223 125 -236 118 -5 -4 -6 -1 -1 7 6 10 4 12
-9 7 -11 -5 -15 -3 -10 5 5 8 2 9 -10 5 -9 -4 -15 -3 -12 1 7 12 -104 73 -117
65 -7 -3 -9 -3 -5 2 7 7 -148 114 -165 114 -5 0 -14 6 -20 14 -20 24 -144 116
-150 111 -3 -3 -83 72 -177 167 -95 94 -167 169 -159 165 8 -4 4 1 -8 12 -13
11 -23 24 -23 30 0 5 -10 17 -22 28 l-23 19 20 -25 20 -25 -23 19 c-12 11 -20
21 -17 24 9 9 -58 91 -69 85 -6 -3 -8 -3 -4 1 3 4 -22 51 -57 105 -87 135
-178 321 -270 551 -106 268 -123 297 -222 388 -70 64 -120 123 -167 200 -9 16
65 -25 134 -73 123 -85 311 -190 543 -302 54 -27 164 -34 117 -9 -16 10 -30
11 -42 5 -12 -6 -28 -4 -50 6 l-33 15 43 -4 c23 -2 42 -2 42 0 0 2 -19 13 -43
25 -72 37 -158 99 -257 187 -126 111 -183 172 -303 322 -100 126 -127 157
-112 131 5 -10 4 -12 -4 -7 -6 4 -9 11 -6 15 2 5 -3 17 -11 27 -9 10 -12 13
-8 5 5 -10 3 -12 -5 -7 -7 5 -10 15 -7 23 3 8 2 12 -3 8 -10 -5 -78 104 -73
118 1 4 -2 7 -7 7 -5 0 -19 21 -30 46 -12 25 -30 54 -39 64 -9 10 -37 58 -62
107 -24 48 -54 102 -66 118 -12 17 -43 80 -69 140 -27 61 -72 161 -101 223
-30 63 -54 118 -54 123 0 10 -63 174 -127 329 -42 103 -177 498 -203 595 -10
39 -26 111 -35 160 -35 199 -66 387 -84 515 -26 180 -84 787 -77 805 15 41 32
8 81 -160 108 -367 382 -949 507 -1079 15 -17 28 -35 28 -40 0 -10 20 -38 200
-273 78 -103 237 -267 404 -419 l99 -90 -35 -22 c-19 -12 -61 -28 -94 -35 -70
-16 -59 -26 36 -34 38 -3 70 -8 70 -10 0 -7 -88 -101 -195 -208 -55 -55 -98
-104 -97 -109 2 -5 -3 -6 -11 -3 -19 7 -41 -8 -33 -22 4 -6 12 -9 17 -6 5 4 9
1 9 -5 0 -7 -7 -10 -15 -7 -8 4 -17 2 -20 -4 -4 -5 -12 -9 -18 -8 -22 3 -37
-1 -37 -8 0 -18 57 -9 106 17 28 16 54 26 57 23 14 -14 -93 -280 -132 -327 -8
-9 -7 -13 4 -13 8 0 11 5 8 10 -3 6 -1 7 6 3 9 -6 9 -11 0 -22 -6 -7 -15 -12
-19 -9 -4 2 -16 -2 -26 -11 -18 -14 -18 -15 4 -4 31 15 28 5 -10 -31 l-33 -31
30 20 c17 11 52 43 80 71 27 28 53 51 58 51 11 0 2 -70 -19 -150 -8 -30 -14
-72 -14 -95 0 -39 1 -38 46 53 24 50 49 92 53 92 5 0 13 -39 17 -87 4 -49 9
-81 12 -73 2 8 17 43 33 76 16 34 29 66 29 71 0 17 102 206 158 292 91 141
168 239 285 365 204 218 330 314 572 434 151 75 218 99 372 133 220 48 363 62
563 54 96 -3 191 -9 210 -12 33 -6 33 -7 10 -13 -19 -5 -11 -8 33 -13 66 -8
114 6 62 19 -17 3 -37 12 -45 19 -8 6 -43 24 -77 40 -35 16 -63 35 -63 41 0
24 -154 58 -335 75 -158 15 -519 6 -600 -15 -70 -18 -75 -19 -75 -7 0 5 14 14
30 21 45 18 33 20 -32 5 -31 -7 -59 -10 -62 -7 -3 3 -6 0 -6 -7 0 -7 -4 -10
-9 -7 -14 9 -42 -5 -34 -17 4 -6 1 -7 -7 -2 -8 5 -18 1 -27 -10 -7 -11 -13
-15 -13 -11 0 4 -26 -7 -57 -24 -64 -36 -110 -70 -97 -70 5 0 0 -6 -11 -12
-11 -7 -22 -11 -24 -9 -2 1 -7 -1 -10 -6 -3 -4 -24 -20 -47 -35 -23 -14 -88
-63 -145 -108 -250 -197 -347 -264 -298 -204 13 16 12 16 -8 5 -21 -11 -26 -8
-55 34 -153 213 -357 630 -487 994 -42 116 -53 163 -75 321 -30 215 -50 464
-42 522 4 26 14 47 31 60 14 11 25 27 25 37 0 16 66 89 76 84 2 -2 4 0 5 5 1
13 31 42 39 37 4 -2 16 5 26 18 l19 22 -25 -20 c-13 -11 24 27 84 85 60 58
111 106 115 107 3 1 31 -52 61 -119 116 -259 265 -479 521 -772 172 -196 494
-491 520 -476 9 6 22 2 38 -13 l25 -22 -23 30 c-98 131 -249 413 -273 510 -7
28 -18 56 -24 62 -28 29 -120 312 -140 428 -3 22 -15 74 -25 115 -10 41 -19
89 -19 106 0 17 -7 51 -15 74 -8 24 -19 66 -24 94 -5 28 -27 143 -50 256 -22
112 -41 212 -41 221 0 10 28 39 63 64 34 26 61 52 59 57 -1 5 3 6 9 2 7 -4 23
5 38 22 14 17 22 23 16 15 -5 -8 4 -4 22 9 18 13 30 27 27 31 -3 5 3 6 12 2
13 -5 15 -3 9 7 -5 8 -4 11 2 7 5 -3 22 3 39 14 45 31 251 133 337 168 103 41
141 41 162 1 92 -178 480 -689 518 -682 10 2 18 -2 18 -8 1 -5 2 -14 3 -19 2
-18 16 -24 16 -7 0 9 -18 56 -41 104 -57 123 -87 195 -120 287 -15 44 -51 141
-79 215 -98 256 -191 593 -190 689 0 17 43 -59 119 -209 141 -281 188 -366
294 -524 89 -135 121 -178 185 -251 112 -126 113 -127 152 -122 19 3 80 10
135 16 55 6 132 18 170 25 95 19 281 20 385 2 47 -8 105 -16 130 -18 l45 -3 9
43 c6 23 13 42 18 42 4 0 8 7 8 15 0 8 5 15 12 15 6 0 8 3 5 6 -4 4 3 16 16
26 12 11 22 23 22 26 2 21 142 202 157 202 4 0 8 5 8 10 0 18 103 140 117 140
8 0 23 9 35 20 20 18 20 23 8 82 -6 35 -29 119 -50 188 -160 528 -310 1242
-335 1595 -3 44 -8 98 -11 120 -10 75 14 13 30 -77 8 -48 20 -96 25 -107 11
-20 32 -107 110 -451 21 -96 62 -254 90 -350 61 -215 264 -817 280 -833 9 -9
20 -3 46 24 19 20 32 39 29 42 -3 3 6 13 20 24 14 10 50 40 79 66 28 27 59 55
68 63 9 8 21 14 27 14 5 0 12 3 14 8 2 4 17 16 34 27 36 23 129 103 217 188
34 31 64 57 69 57 4 0 8 5 8 11 0 6 38 47 83 92 93 91 207 224 207 242 0 7 10
20 21 31 12 10 30 37 39 59 21 46 64 98 74 88 3 -3 6 -1 6 5 0 7 6 12 13 12 8
0 14 6 15 13 5 49 23 120 36 144 l15 28 13 -32 c7 -18 15 -33 19 -33 3 0 14
18 24 39 13 31 91 112 135 141 4 3 12 15 19 28 6 12 18 22 26 22 7 0 15 4 17
10 5 15 77 96 216 243 17 19 32 38 32 44 0 5 11 19 24 30 13 12 36 42 51 66
14 25 62 83 107 129 44 45 87 93 95 106 9 12 22 22 29 22 8 0 14 3 14 8 0 12
57 72 68 72 9 0 24 24 26 42 1 3 4 10 9 14 4 4 7 11 7 16 0 4 -560 8 -1244 8
-1228 0 -1244 0 -1269 -20z m4741 -107 c89 -178 269 -780 302 -1010 28 -197
50 -293 68 -293 42 0 83 359 99 862 3 120 9 215 13 213 23 -15 87 -345 131
-680 5 -44 14 -98 19 -120 10 -42 41 -248 60 -395 44 -341 52 -656 21 -840
l-17 -105 -12 125 c-6 69 -14 199 -17 290 -12 339 -36 583 -73 755 -9 44 -22
79 -27 79 -27 -3 -33 -87 -34 -454 -1 -321 -14 -767 -25 -850 -2 -14 -4 -50
-5 -80 -1 -42 -4 -51 -12 -38 -5 10 -9 28 -7 40 2 13 -9 102 -24 198 -15 96
-34 229 -42 295 -9 66 -39 219 -67 340 -45 193 -55 223 -79 247 -34 33 -34 30
-66 303 -14 121 -32 249 -40 285 -8 36 -21 101 -29 145 -8 44 -24 121 -35 170
-31 136 -70 314 -80 365 -5 25 -15 61 -23 80 -16 39 -31 110 -23 110 3 0 14
-17 24 -37z m910 -1205 c37 -143 47 -219 47 -370 0 -112 -4 -161 -12 -169 -20
-20 -31 -1 -48 77 -15 68 -38 465 -28 491 10 26 31 12 41 -29z m-7635 -1075
c-7 -2 -21 -2 -30 0 -10 3 -4 5 12 5 17 0 24 -2 18 -5z m3807 -471 c0 -14
-117 -64 -141 -60 -18 2 -24 9 -24 28 0 24 3 25 80 31 44 3 81 6 83 7 1 1 2
-2 2 -6z m-3130 -208 c0 -8 -19 -13 -24 -6 -3 5 1 9 9 9 8 0 15 -2 15 -3z
m-1973 -267 c0 -8 -6 -14 -14 -14 -9 0 -10 4 -2 14 6 7 12 13 14 13 1 0 2 -6
2 -13z m6517 -613 c72 -19 86 -28 86 -59 0 -37 -26 -50 -97 -48 -82 2 -151 28
-159 59 -15 59 53 78 170 48z m394 -152 c-2 -8 -7 -17 -13 -19 -17 -5 -38 14
-32 30 8 20 49 10 45 -11z m-1748 -287 c-7 -8 -18 -15 -24 -15 -6 0 -2 7 8 15
25 19 32 19 16 0z m-45 -42 c-1 -12 -9 -17 -21 -15 -34 7 -32 10 23 31 1 1 0
-7 -2 -16z m2871 -112 c-5 -8 -56 -3 -56 5 0 2 14 4 31 4 16 0 28 -4 25 -9z
m-26 -127 c0 -8 -6 -11 -15 -8 -8 4 -15 9 -15 13 0 4 7 8 15 8 8 0 15 -6 15
-13z m-7110 -828 c0 -41 -44 -62 -69 -33 -12 16 1 38 34 55 25 13 35 7 35 -22z
m-226 -162 c30 -12 20 -70 -20 -114 -20 -22 -44 -40 -53 -40 -9 0 -27 -12 -40
-25 -25 -27 -42 -31 -70 -15 -37 19 -36 70 1 70 10 0 32 -7 48 -15 36 -19 40
-4 5 19 -14 9 -25 23 -25 32 0 19 40 57 83 78 35 17 48 19 71 10z m6563 -442
c-22 -24 -21 -33 1 -26 15 5 15 4 -2 -10 -10 -8 -23 -13 -29 -9 -6 3 -7 1 -4
-4 9 -14 -29 -47 -44 -37 -7 4 -10 3 -5 -4 8 -13 -10 -26 -25 -16 -7 4 14 30
53 65 63 58 85 75 55 41z m-7070 -429 c-3 -10 -5 -4 -5 12 0 17 2 24 5 18 2
-7 2 -21 0 -30z m-399 -561 c10 -15 29 -54 42 -87 42 -108 98 -211 148 -274
49 -61 195 -203 345 -335 79 -70 129 -137 91 -122 -58 22 -146 49 -236 72 -56
14 -124 35 -152 46 -62 24 -177 110 -245 184 l-50 54 -16 117 c-18 143 -45
399 -45 431 0 23 3 22 50 -18 27 -23 58 -54 68 -68z m7672 55 c0 -2 -10 -12
-22 -23 l-23 -19 19 23 c18 21 26 27 26 19z m-7402 -302 c53 -65 133 -159 178
-207 97 -103 142 -182 118 -205 -11 -12 -18 -12 -29 -3 -8 7 -12 17 -8 23 3 5
1 7 -5 3 -9 -5 -272 260 -347 351 -40 49 -95 161 -95 194 l0 30 47 -33 c25
-18 89 -87 141 -153z m-2078 -245 c-6 -19 -13 -128 -17 -242 -6 -201 4 -379
28 -505 14 -71 3 -89 -61 -97 -28 -4 -85 -16 -128 -26 -42 -11 -84 -20 -93
-20 -25 0 -29 34 -14 129 7 47 16 113 20 146 23 215 145 603 212 677 16 18 18
18 40 -4 20 -21 22 -28 13 -58z m2366 -60 c15 -22 25 -42 23 -44 -2 -2 -16 16
-31 40 -34 55 -28 58 8 4z m-512 -78 c45 -43 97 -86 116 -96 72 -37 184 -65
270 -67 36 -1 79 -5 95 -10 22 -6 13 -7 -35 -5 l-65 4 40 -13 c22 -8 63 -14
90 -15 28 -1 61 -6 75 -11 19 -7 13 -8 -25 -5 l-50 4 52 -15 c42 -13 54 -21
64 -47 25 -65 102 -226 106 -222 3 2 -5 23 -17 47 -31 60 -90 202 -86 206 7 7
26 -26 66 -117 23 -52 68 -147 101 -210 46 -88 53 -108 32 -84 -15 17 -34 39
-41 50 -7 10 -2 -3 12 -29 20 -38 22 -49 12 -53 -8 -3 -16 -14 -19 -25 -7 -25
-46 -25 -131 1 -37 12 -72 18 -78 14 -6 -4 -8 -3 -4 4 4 6 -20 19 -61 33 -106
35 -203 77 -254 110 -43 27 -212 212 -274 300 -14 19 -34 70 -45 114 -20 84
-40 215 -32 215 3 0 42 -35 86 -78z m243 -128 c-3 -3 -12 -4 -19 -1 -8 3 -5 6
6 6 11 1 17 -2 13 -5z m56 -11 c-7 -2 -19 -2 -25 0 -7 3 -2 5 12 5 14 0 19 -2
13 -5z m60 0 c-7 -2 -19 -2 -25 0 -7 3 -2 5 12 5 14 0 19 -2 13 -5z m-2022
-184 c5 -25 7 -28 8 -10 0 13 4 22 7 18 3 -3 1 -27 -5 -54 -6 -26 -17 -96 -26
-155 -16 -113 -31 -161 -49 -155 -27 9 -8 287 25 375 12 32 33 23 40 -19z
m8719 -662 c0 -19 -37 -40 -46 -24 -4 6 -4 9 1 5 5 -5 14 1 22 12 16 23 23 25
23 7z m46 -19 c1 -28 18 -374 28 -549 3 -56 3 -57 -25 -63 -16 -3 -80 -30
-141 -60 -168 -81 -329 -156 -334 -156 -8 0 -137 -66 -229 -117 -193 -108
-394 -228 -660 -395 -66 -41 -212 -131 -325 -200 -113 -68 -269 -171 -347
-229 -119 -87 -144 -110 -152 -139 -6 -19 -16 -102 -22 -185 -6 -82 -14 -166
-18 -185 l-7 -35 -23 70 c-58 176 -142 311 -216 347 -43 22 -265 93 -365 118
-82 21 -125 30 -295 65 -44 9 -125 16 -180 16 -55 0 -131 4 -170 9 -58 7 -48
8 55 5 166 -5 97 12 -87 21 -73 4 -133 11 -133 15 0 4 -12 9 -27 11 -26 3 -28
8 -40 73 -6 39 -14 104 -18 145 -3 41 -15 109 -26 152 -32 128 -44 121 139 83
86 -19 321 -68 520 -109 200 -42 443 -99 540 -128 140 -40 193 -52 252 -52
l75 -1 200 98 c179 88 481 253 682 373 40 24 153 101 250 172 98 71 225 162
283 202 136 94 394 295 490 381 41 36 131 114 200 172 69 59 125 106 126 107
0 0 0 -15 0 -32z m-612 -447 c3 -5 -2 -15 -11 -22 -14 -12 -16 -12 -9 0 6 9 5
12 -5 9 -8 -3 -13 -10 -12 -17 2 -6 -31 -36 -73 -67 -59 -45 -78 -54 -87 -45
-9 10 -8 11 6 5 12 -4 17 -2 15 7 -2 9 4 13 16 11 10 -2 15 1 12 7 -3 5 26 35
66 65 79 62 75 59 82 47z m591 -206 c-76 -36 -185 -85 -190 -85 -2 0 -41 -18
-87 -39 -119 -56 -181 -82 -185 -78 -2 2 25 17 59 32 35 15 106 48 158 73 52
24 104 48 115 52 11 4 45 19 75 33 60 28 80 35 95 36 6 0 -12 -10 -40 -24z
m-670 -315 c-3 -5 -11 -10 -16 -10 -6 0 -7 5 -4 10 3 6 11 10 16 10 6 0 7 -4
4 -10z m-6048 -330 c2 0 3 -7 3 -15 0 -11 -11 -15 -40 -15 -40 0 -45 5 -34 33
4 12 12 13 37 6 18 -5 33 -9 34 -9z m5523 12 c0 -7 -44 -36 -150 -97 -30 -18
-102 -61 -160 -97 -146 -90 -240 -141 -240 -131 0 8 51 39 280 173 19 11 66
40 105 64 38 25 73 42 76 40 4 -2 9 -1 11 4 4 10 61 51 71 52 4 0 7 -3 7 -8z
m-5416 -18 c25 -10 8 -24 -30 -24 -32 0 -42 8 -27 23 8 9 36 9 57 1z m539 -39
c15 -4 25 -11 22 -15 -3 -4 29 -13 71 -19 42 -6 85 -18 97 -26 12 -8 29 -15
39 -15 10 0 44 -14 75 -31 l58 -30 -43 4 c-24 3 -51 12 -60 19 -9 8 -51 22
-92 31 -41 9 -106 23 -145 32 -133 29 -293 16 -500 -42 -49 -14 -107 -34 -128
-45 -32 -16 -50 -18 -108 -12 -38 4 -72 10 -74 15 -3 4 12 13 32 20 21 7 43
18 48 24 13 16 269 86 360 98 44 6 317 -1 348 -8z m-829 -31 c18 -7 22 -34 6
-34 -6 0 -10 -8 -8 -17 2 -13 -5 -19 -23 -21 -21 -2 -29 3 -39 27 -6 16 -9 35
-5 40 7 12 44 14 69 5z m93 -26 c-3 -8 -6 -5 -6 6 -1 11 2 17 5 13 3 -3 4 -12
1 -19z m-1272 -42 c9 -9 21 -16 26 -16 19 0 9 -58 -13 -72 -23 -15 -23 -17
-22 -254 0 -256 17 -411 49 -461 21 -32 29 -21 40 52 3 28 15 84 25 125 10 41
21 96 25 123 8 61 31 64 40 4 4 -24 1 -102 -6 -173 -15 -145 -16 -250 -4 -341
7 -59 7 -63 -20 -87 -48 -45 -88 -31 -152 50 -24 29 -47 71 -52 91 -5 21 -18
74 -30 118 -11 44 -23 117 -27 163 -4 45 -10 85 -14 87 -4 2 -38 -1 -76 -8
l-69 -13 0 -200 c0 -217 5 -235 48 -159 29 52 67 58 126 20 43 -26 52 -53 27
-78 -8 -8 -85 -26 -178 -41 -89 -15 -199 -36 -243 -46 -44 -11 -102 -20 -130
-22 -47 -3 -50 -2 -50 22 0 21 5 25 34 28 24 3 30 6 21 12 -10 6 -4 11 21 17
l34 9 2 309 c1 242 4 310 15 317 10 7 107 3 115 -5 1 -1 5 -15 8 -30 6 -23 4
-29 -14 -34 -21 -5 -21 -8 -21 -278 l0 -273 30 14 30 15 0 233 c0 129 3 248 7
266 4 24 3 31 -5 26 -9 -5 -12 17 -12 83 0 49 5 93 10 96 6 3 10 28 10 54 0
42 3 49 25 59 34 16 41 15 87 -5 37 -16 52 -43 24 -43 -14 0 -24 -58 -27 -150
l-2 -45 -7 40 c-6 33 -7 27 -9 -37 -1 -74 0 -78 23 -84 29 -7 46 1 46 23 0 15
13 14 72 -3 16 -5 17 12 20 205 2 136 -1 211 -7 211 -30 0 -165 -25 -165 -30
0 -4 -42 -10 -92 -14 -65 -5 -95 -11 -101 -22 -5 -9 -25 -14 -61 -14 l-54 0
-4 -292 c-4 -258 -7 -306 -28 -403 -35 -166 -121 -366 -184 -424 -35 -33 -44
-19 -22 37 92 241 99 292 102 756 l3 398 108 0 c118 -1 315 13 248 18 -30 2
-18 6 50 15 50 7 115 14 145 16 55 2 55 2 15 9 -29 5 -33 8 -14 9 41 2 87 21
93 38 8 20 88 13 111 -11z m928 -95 c30 -12 41 -41 38 -98 -1 -24 1 -43 4 -43
4 0 30 18 58 41 45 35 56 40 87 34 19 -4 39 -10 43 -15 18 -17 -22 -64 -84
-99 -119 -67 -136 -80 -143 -111 -6 -32 1 -60 15 -60 19 0 59 49 66 80 5 29 8
31 18 17 7 -9 44 -23 84 -32 111 -23 147 -48 187 -130 32 -67 30 -119 -6 -213
-37 -94 -76 -145 -172 -221 -71 -57 -192 -121 -228 -121 -34 0 -32 49 1 50 4
0 49 32 100 70 157 117 215 216 207 351 -3 62 -7 72 -38 104 -55 57 -77 47
-110 -45 -14 -41 -43 -111 -63 -154 -28 -59 -37 -92 -37 -130 0 -70 -19 -96
-70 -96 -34 0 -48 -8 -95 -50 -44 -39 -62 -50 -89 -50 -19 0 -41 7 -50 15 -20
20 -30 76 -23 126 8 64 78 196 151 287 61 78 66 87 66 134 0 47 -1 49 -22 41
-13 -4 -45 -8 -71 -8 -40 0 -53 5 -68 24 -11 14 -19 36 -17 50 3 25 4 26 73
23 74 -2 98 8 124 55 19 36 14 91 -9 98 -11 3 -20 15 -20 25 0 10 -3 25 -6 33
-9 24 54 35 99 18z m775 -5 c54 -28 65 -49 57 -112 -6 -53 -5 -56 12 -50 34
14 127 36 148 36 36 0 85 -37 85 -64 0 -14 -6 -28 -12 -33 -7 -4 -62 -11 -122
-14 -90 -5 -111 -9 -122 -24 -18 -25 -18 -128 0 -163 67 -132 -17 -339 -185
-453 -92 -62 -123 -46 -48 26 44 42 129 151 129 166 0 4 -17 13 -38 19 -66 17
-98 73 -87 148 8 51 77 132 114 132 14 0 25 9 32 27 11 30 4 73 -12 73 -15 0
-81 -35 -151 -81 -56 -36 -68 -40 -108 -36 -49 6 -83 36 -78 71 2 17 12 22 58
27 53 6 240 80 275 109 13 11 16 26 12 64 -2 28 -9 52 -14 53 -6 2 -18 10 -28
17 -18 13 -17 15 4 45 25 34 39 38 79 17z m2491 -62 c10 -9 -45 -3 -59 6 -11
7 -5 8 20 4 19 -4 37 -8 39 -10z m-1476 -35 c18 -23 15 -53 -8 -77 -6 -7 -37
-17 -69 -21 -37 -5 -64 -15 -81 -31 -23 -22 -25 -30 -24 -117 0 -51 4 -95 8
-98 5 -2 35 13 67 34 140 91 260 95 346 13 48 -45 62 -88 55 -167 -6 -75 -56
-186 -117 -260 -93 -111 -250 -210 -410 -259 -104 -31 -217 -46 -205 -26 6 10
3 12 -13 8 -12 -4 -22 -3 -22 1 0 5 31 13 70 20 68 11 151 43 178 69 7 6 19
12 26 12 27 0 171 99 232 160 126 125 193 295 150 379 -60 114 -208 64 -326
-109 -36 -53 -45 -60 -74 -60 -53 0 -60 16 -53 133 8 126 35 233 72 281 l28
37 -22 45 c-12 25 -19 49 -16 54 3 5 47 7 98 5 79 -4 94 -8 110 -26z m2194
-85 c-3 -3 -12 -4 -19 -1 -8 3 -5 6 6 6 11 1 17 -2 13 -5z m86 -11 c-7 -2 -21
-2 -30 0 -10 3 -4 5 12 5 17 0 24 -2 18 -5z m200 -40 c-7 -2 -21 -2 -30 0 -10
3 -4 5 12 5 17 0 24 -2 18 -5z m-4671 -43 c126 -35 180 -192 115 -333 -31 -68
-107 -146 -190 -196 -102 -60 -129 -39 -39 31 98 76 162 193 162 296 0 81 -41
132 -106 132 -24 0 -24 -1 -18 -63 9 -90 -26 -211 -88 -304 -33 -50 -67 -62
-103 -39 -42 28 -58 71 -53 150 8 143 114 289 238 327 35 10 40 10 82 -1z
m1563 -50 c17 -19 17 -51 -1 -117 -5 -18 0 -24 30 -37 50 -21 58 -50 54 -186
-3 -104 -6 -121 -33 -175 -60 -119 -156 -140 -181 -40 l-7 30 -18 -40 c-10
-22 -19 -46 -19 -54 0 -22 -31 -51 -52 -51 -13 0 -24 13 -35 38 -15 35 -14 39
7 77 40 68 120 228 120 238 0 5 -15 8 -32 6 -67 -4 -78 0 -95 36 -9 19 -14 37
-11 41 4 3 26 8 50 11 24 3 64 16 89 29 45 22 46 25 53 78 4 34 2 65 -5 80 -7
14 -9 32 -6 40 9 23 70 21 92 -4z m250 -175 c18 -19 41 -55 51 -80 16 -43 16
-49 1 -80 -9 -18 -24 -36 -34 -39 -22 -7 -146 37 -151 53 -2 6 7 11 20 11 29
0 42 9 58 39 10 20 9 27 -7 49 -11 15 -34 30 -51 34 -56 15 -31 48 36 48 38 0
50 -5 77 -35z m3982 -408 c46 -93 83 -170 81 -172 -2 -2 -25 1 -53 7 -27 5
-96 17 -152 25 -85 13 -103 19 -103 34 0 22 66 212 91 262 17 33 22 37 36 26
8 -7 53 -89 100 -182z m-2967 144 c-4 -9 -10 -41 -13 -71 -2 -30 -13 -80 -23
-110 -23 -66 -124 -225 -124 -194 0 24 22 74 33 74 4 0 7 9 7 20 0 11 4 20 8
20 4 0 14 21 21 48 8 26 18 54 22 62 5 8 18 49 30 90 33 115 29 106 39 90 5
-8 5 -21 0 -29z m2150 -11 c10 -19 29 -77 63 -196 8 -28 12 -56 8 -62 -7 -11
-151 -41 -198 -42 -31 0 -29 13 16 127 21 54 46 119 55 146 19 50 38 60 56 27z
m-3556 -275 c3 -8 16 -15 28 -15 13 0 31 -12 42 -27 11 -14 14 -23 8 -19 -6 4
-21 -3 -32 -14 -26 -26 -37 -20 -34 19 1 21 -3 31 -12 31 -8 0 -14 2 -14 4 0
2 -3 11 -6 20 -3 9 -2 16 4 16 5 0 12 -7 16 -15z m-492 -12 c8 -10 18 -32 21
-50 6 -32 6 -32 -20 -22 -41 16 -53 29 -53 60 0 34 27 40 52 12z m580 -5 c-2
-10 -6 -18 -7 -18 -1 0 -5 8 -7 18 -3 11 0 19 7 19 7 0 10 -8 7 -19z m-820
-32 c-33 -24 -73 -51 -88 -59 -41 -21 -168 -62 -239 -78 -88 -19 -341 -16
-439 5 -97 21 -264 81 -288 103 -22 20 -23 33 -2 33 9 0 12 -5 8 -12 -5 -8 -2
-9 10 -5 55 21 95 19 172 -11 223 -84 463 -89 669 -12 92 35 219 75 249 79 4
0 -19 -19 -52 -43z m468 9 c0 -40 -15 -48 -18 -9 -2 25 4 44 14 44 2 0 4 -16
4 -35z m-71 -5 c9 -28 8 -32 -12 -39 -13 -5 -23 -5 -26 1 -1 5 -9 1 -17 -9
-15 -20 -13 -22 -18 37 -1 8 5 20 14 27 26 21 47 15 59 -17z m41 -6 c0 -19 -4
-33 -8 -30 -8 5 -4 66 4 66 2 0 4 -16 4 -36z m422 -4 c3 -30 0 -40 -11 -40 -8
0 -12 3 -8 6 3 3 1 17 -4 31 -5 14 -7 29 -3 34 12 19 22 7 26 -31z m78 -5 c0
-25 -4 -45 -9 -45 -5 0 -8 17 -6 38 4 51 4 52 10 52 3 0 5 -20 5 -45z m34 10
c3 -8 1 -15 -4 -15 -6 0 -10 7 -10 15 0 8 2 15 4 15 2 0 6 -7 10 -15z m7117
-117 c23 -46 64 -116 91 -157 l48 -74 -31 -56 c-44 -78 -112 -181 -120 -181
-15 0 -39 124 -49 249 -11 149 -4 301 14 301 2 0 23 -37 47 -82z m-7684 66
c-3 -3 -12 -4 -19 -1 -8 3 -5 6 6 6 11 1 17 -2 13 -5z m63 -4 c-35 -11 -50
-11 -50 -2 0 5 17 9 38 9 32 1 34 0 12 -7z m-1555 -36 c8 -46 -3 -58 -46 -47
-24 7 -35 16 -37 32 -6 38 5 51 42 51 31 0 34 -3 41 -36z m2029 -43 l13 -53
-23 6 c-17 5 -26 2 -30 -9 -4 -8 -12 -15 -20 -15 -10 0 -14 16 -14 61 0 60 1
61 25 57 14 -3 25 -1 25 5 0 22 11 -2 24 -52z m-514 18 c0 -20 4 -28 12 -23 7
4 8 3 4 -4 -15 -24 -44 -13 -48 18 -5 33 -2 40 19 40 8 0 13 -12 13 -31z m47
-1 c-3 -7 -5 -2 -5 12 0 14 2 19 5 13 2 -7 2 -19 0 -25z m592 -37 c9 -54 9
-54 -9 -31 -13 17 -19 19 -22 9 -6 -17 -13 -11 -23 20 -4 13 -3 21 2 18 5 -3
15 9 23 26 15 35 15 35 29 -42z m-743 32 c16 -24 20 -50 9 -61 -1 -1 -14 2
-29 7 -21 9 -26 17 -26 46 0 43 20 46 46 8z m360 7 c1 -8 7 -30 13 -47 6 -23
6 -35 -1 -39 -7 -4 -8 -2 -4 4 7 12 -3 15 -40 13 -17 -2 -23 5 -26 26 -6 49 1
64 29 61 15 -2 27 -10 29 -18z m138 -5 c-5 -20 -2 -25 12 -25 17 0 16 -1 -2
-16 -10 -8 -13 -13 -6 -9 6 3 12 1 12 -4 0 -13 -30 -14 -49 -2 -7 5 -11 13 -7
19 3 6 2 13 -4 17 -5 3 -10 -2 -10 -11 0 -10 -3 -15 -6 -11 -11 11 8 48 29 57
34 14 38 12 31 -15z m-344 -30 c0 -8 -2 -15 -4 -15 -2 0 -6 7 -10 15 -3 8 -1
15 4 15 6 0 10 -7 10 -15z m-1412 -33 c3 -28 0 -32 -21 -32 -34 0 -37 8 -19
41 21 36 36 32 40 -9z m1932 -4 c0 -12 -1 -19 -3 -17 -1 2 -9 12 -16 22 -12
14 -11 17 3 17 10 0 16 -8 16 -22z m94 6 c3 -8 2 -12 -4 -9 -6 3 -10 10 -10
16 0 14 7 11 14 -7z m-1909 -14 c0 -8 -10 -16 -22 -18 -22 -3 -32 16 -16 32
12 11 38 2 38 -14z"/>
<path d="M2956 3697 c3 -10 9 -15 12 -12 3 3 0 11 -7 18 -10 9 -11 8 -5 -6z"/>
<path d="M5582 1780 c0 -14 2 -19 5 -12 2 6 2 18 0 25 -3 6 -5 1 -5 -13z"/>
<path d="M578 1693 c7 -3 16 -2 19 1 4 3 -2 6 -13 5 -11 0 -14 -3 -6 -6z"/>
<path d="M2140 1310 c-21 -21 -29 -103 -10 -115 11 -7 60 86 60 115 0 26 -24
26 -50 0z"/>
<path d="M1980 1130 c-38 -59 -59 -113 -60 -152 0 -40 21 -35 69 17 39 43 41
47 41 109 0 36 -4 67 -9 70 -5 3 -24 -17 -41 -44z"/>
<path d="M2800 1254 c-11 -29 -13 -65 -4 -88 7 -19 45 -21 62 -4 19 19 15 85
-5 92 -15 6 -15 8 -3 16 11 7 8 10 -13 10 -20 0 -30 -7 -37 -26z"/>
<path d="M1515 1275 c-15 -25 -32 -74 -38 -110 -9 -56 -9 -67 4 -81 14 -14 17
-13 31 8 20 30 56 136 64 187 6 37 4 41 -14 41 -14 0 -30 -14 -47 -45z"/>
<path d="M3239 1149 c-17 -33 -69 -201 -69 -226 0 -30 35 -48 66 -34 28 13 52
86 61 189 5 58 3 76 -8 83 -23 14 -38 10 -50 -12z"/>
<path d="M2555 9908 c-11 -6 -23 -16 -27 -22 -4 -6 -10 -7 -14 -3 -4 4 -16 -1
-27 -10 -10 -10 -22 -17 -26 -15 -13 7 -71 -9 -71 -20 0 -5 -7 -7 -16 -4 -9 3
-21 3 -27 -1 -7 -4 -14 -8 -17 -8 -3 0 -16 -8 -29 -17 -21 -15 -24 -25 -22
-67 3 -99 45 -271 62 -254 5 5 12 23 15 39 3 16 12 36 20 45 8 8 14 19 14 23
0 4 6 13 13 21 22 23 47 55 47 60 0 5 25 37 48 60 6 8 12 21 12 29 0 9 5 16
11 16 5 0 7 -6 3 -12 -5 -9 -4 -10 4 -3 6 6 13 22 14 35 2 14 9 31 16 39 7 7
11 20 8 27 -3 8 -2 14 2 14 4 0 8 9 8 20 0 11 0 20 -1 20 0 0 -9 -6 -20 -12z"/>
<path d="M6127 9082 c-29 -26 -69 -55 -90 -65 -21 -9 -36 -21 -32 -26 3 -5 38
-21 78 -36 39 -15 100 -41 134 -58 34 -17 65 -28 69 -25 3 4 -4 40 -16 80 -38
125 -61 178 -76 178 -9 0 -39 -22 -67 -48z"/>
<path d="M7758 9123 c6 -2 18 -2 25 0 6 3 1 5 -13 5 -14 0 -19 -2 -12 -5z"/>
<path d="M7901 8369 c-24 -5 -45 -10 -47 -11 -6 -7 456 4 496 11 30 6 -29 9
-180 9 -124 0 -245 -4 -269 -9z"/>
<path d="M7766 8326 c-23 -9 -14 -11 56 -8 45 2 108 7 138 12 46 6 37 7 -56 7
-61 0 -123 -5 -138 -11z"/>
<path d="M8465 8329 c22 -4 78 -7 125 -7 l85 1 -60 7 c-33 4 -89 8 -125 8 -60
0 -62 -1 -25 -9z"/>
<path d="M7630 8275 c-47 -19 -77 -34 -67 -35 10 0 38 9 63 20 24 11 58 23 74
27 17 3 30 9 30 14 0 13 -7 11 -100 -26z"/>
<path d="M7780 8296 c-54 -21 -140 -53 -187 -70 -23 -9 -55 -13 -70 -10 -15 3
-39 0 -53 -6 -22 -9 -19 -10 18 -5 24 3 42 1 42 -5 0 -9 82 18 230 77 36 14
67 27 69 29 8 8 -15 3 -49 -10z"/>
<path d="M8648 8303 c7 -3 16 -2 19 1 4 3 -2 6 -13 5 -11 0 -14 -3 -6 -6z"/>
<path d="M4020 8290 c-8 -5 -10 -10 -5 -10 6 0 17 5 25 10 8 5 11 10 5 10 -5
0 -17 -5 -25 -10z"/>
<path d="M8725 8289 c22 -4 60 -8 85 -7 41 0 42 1 15 8 -16 4 -55 8 -85 8 -55
0 -55 0 -15 -9z"/>
<path d="M8868 8293 c6 -2 18 -2 25 0 6 3 1 5 -13 5 -14 0 -19 -2 -12 -5z"/>
<path d="M8918 8283 c7 -3 16 -2 19 1 4 3 -2 6 -13 5 -11 0 -14 -3 -6 -6z"/>
<path d="M4065 8270 c-11 -5 -40 -9 -65 -10 -25 0 -56 -7 -70 -14 -23 -13 -21
-14 25 -8 45 5 49 4 37 -11 -10 -11 -23 -14 -43 -10 -18 3 -29 1 -29 -6 0 -12
66 -16 72 -3 5 11 66 52 77 52 5 0 13 5 16 10 7 11 7 11 -20 0z"/>
<path d="M8858 8263 c6 -2 18 -2 25 0 6 3 1 5 -13 5 -14 0 -19 -2 -12 -5z"/>
<path d="M9005 8230 c61 -16 115 -28 120 -26 6 2 -6 7 -25 11 -19 4 -61 16
-94 26 -32 11 -70 19 -85 18 -14 0 24 -14 84 -29z"/>
<path d="M3864 8204 c-18 -14 -18 -14 6 -3 31 14 36 19 24 19 -6 0 -19 -7 -30
-16z"/>
<path d="M4068 8203 c23 -2 61 -2 85 0 23 2 4 4 -43 4 -47 0 -66 -2 -42 -4z"/>
<path d="M3775 8152 c-77 -47 -155 -102 -155 -107 0 -3 42 23 94 58 52 34 102
67 113 74 10 6 16 12 13 12 -3 1 -32 -16 -65 -37z"/>
<path d="M7499 8185 c-6 -6 -46 -13 -76 -14 -13 -1 -23 -5 -23 -11 0 -16 41
-11 85 9 22 11 35 20 29 20 -6 1 -13 -1 -15 -4z"/>
<path d="M9225 8169 c32 -10 61 -16 63 -14 5 4 -97 35 -112 34 -6 0 16 -9 49
-20z"/>
<path d="M3864 8164 c-18 -14 -18 -15 4 -4 12 6 22 13 22 15 0 8 -5 6 -26 -11z"/>
<path d="M3809 8129 l-24 -20 28 17 c15 9 27 18 27 20 0 8 -8 4 -31 -17z"/>
<path d="M9330 8135 c46 -18 64 -17 25 0 -16 8 -37 14 -45 14 -8 0 1 -7 20
-14z"/>
<path d="M8110 8130 c-34 -7 -34 -7 -5 -8 17 0 44 4 60 8 27 7 27 8 5 8 -14
-1 -41 -4 -60 -8z"/>
<path d="M8228 8123 c12 -2 32 -2 45 0 12 2 2 4 -23 4 -25 0 -35 -2 -22 -4z"/>
<path d="M3697 8054 c-42 -30 -77 -58 -77 -60 0 -5 61 38 135 93 63 47 16 20
-58 -33z"/>
<path d="M7938 8093 c6 -2 18 -2 25 0 6 3 1 5 -13 5 -14 0 -19 -2 -12 -5z"/>
<path d="M7995 8085 c-51 -17 -37 -17 50 0 56 10 62 13 30 13 -22 0 -58 -5
-80 -13z"/>
<path d="M7888 8083 c6 -2 18 -2 25 0 6 3 1 5 -13 5 -14 0 -19 -2 -12 -5z"/>
<path d="M7782 8058 c-24 -5 -42 -12 -39 -15 8 -8 97 9 97 18 0 10 0 10 -58
-3z"/>
<path d="M7890 8060 c-19 -5 -62 -18 -94 -30 -43 -15 -66 -19 -80 -12 -14 6
-35 4 -64 -6 -50 -17 -51 -26 -1 -12 18 6 43 10 54 10 42 -1 -36 -32 -85 -34
-27 -1 -53 -6 -57 -10 -4 -5 9 -6 30 -3 23 4 35 2 31 -4 -3 -5 9 -3 28 5 18 8
85 31 148 51 63 20 124 41 135 45 25 11 2 10 -45 0z"/>
<path d="M3570 8009 c-35 -31 -35 -31 -3 -9 18 11 35 25 38 30 10 16 2 11 -35
-21z"/>
<path d="M3589 7973 c-13 -16 -12 -17 4 -4 9 7 17 15 17 17 0 8 -8 3 -21 -13z"/>
<path d="M3509 7963 c-13 -16 -12 -17 4 -4 16 13 21 21 13 21 -2 0 -10 -8 -17
-17z"/>
<path d="M3549 7943 c-13 -16 -12 -17 4 -4 16 13 21 21 13 21 -2 0 -10 -8 -17
-17z"/>
<path d="M7510 7930 c-13 -8 -12 -10 3 -10 9 0 17 5 17 10 0 12 -1 12 -20 0z"/>
<path d="M7565 7920 c-3 -5 -1 -10 4 -10 6 0 11 5 11 10 0 6 -2 10 -4 10 -3 0
-8 -4 -11 -10z"/>
<path d="M7610 7680 c20 -13 33 -13 25 0 -3 6 -14 10 -23 10 -15 0 -15 -2 -2
-10z"/>
<path d="M7420 7490 c-9 -6 -10 -10 -3 -10 6 0 15 5 18 10 8 12 4 12 -15 0z"/>
<path d="M4340 7415 c-70 -12 -72 -13 -27 -14 26 0 63 -7 82 -15 30 -13 33
-13 28 0 -3 8 3 21 13 29 18 14 18 14 -1 13 -11 0 -54 -7 -95 -13z"/>
<path d="M4105 7370 c-13 -5 -14 -9 -5 -9 8 0 24 4 35 9 13 5 14 9 5 9 -8 0
-24 -4 -35 -9z"/>
<path d="M4218 7373 c7 -3 16 -2 19 1 4 3 -2 6 -13 5 -11 0 -14 -3 -6 -6z"/>
<path d="M10120 7326 c0 -9 7 -12 21 -9 16 4 17 8 7 14 -19 13 -28 11 -28 -5z"/>
<path d="M3930 7300 c-8 -5 -10 -10 -5 -10 6 0 17 5 25 10 8 5 11 10 5 10 -5
0 -17 -5 -25 -10z"/>
<path d="M10176 7277 c3 -10 9 -15 12 -12 3 3 0 11 -7 18 -10 9 -11 8 -5 -6z"/>
<path d="M3838 7259 c-21 -11 -38 -22 -38 -24 0 -5 79 32 89 41 12 11 -18 1
-51 -17z"/>
<path d="M3738 7204 c-38 -20 -36 -28 2 -9 17 9 30 18 30 20 0 7 -1 6 -32 -11z"/>
<path d="M3515 7064 l-30 -26 33 22 c17 12 32 23 32 26 0 7 -4 5 -35 -22z"/>
<path d="M4533 7083 c9 -2 23 -2 30 0 6 3 -1 5 -18 5 -16 0 -22 -2 -12 -5z"/>
<path d="M3539 7033 c-13 -16 -12 -17 4 -4 9 7 17 15 17 17 0 8 -8 3 -21 -13z"/>
<path d="M3499 7003 c-13 -16 -12 -17 4 -4 9 7 17 15 17 17 0 8 -8 3 -21 -13z"/>
<path d="M3940 7010 c-18 -12 -2 -12 25 0 13 6 15 9 5 9 -8 0 -22 -4 -30 -9z"/>
<path d="M3279 6833 l-24 -28 28 24 c25 23 32 31 24 31 -2 0 -14 -12 -28 -27z"/>
<path d="M2412 6198 c-23 -9 135 -8 173 2 19 4 -5 7 -63 6 -51 -1 -100 -4
-110 -8z"/>
<path d="M6044 6037 c-4 -7 -4 -9 1 -5 4 4 14 3 22 -3 8 -7 13 -8 13 -1 0 15
-28 23 -36 9z"/>
<path d="M6099 5962 c-3 -20 -2 -29 4 -23 5 5 7 19 5 32 -3 20 -5 19 -9 -9z"/>
<path d="M6106 5903 c-6 -14 -5 -15 5 -6 7 7 10 15 7 18 -3 3 -9 -2 -12 -12z"/>
<path d="M9441 5756 c-9 -11 -6 -12 14 -8 14 2 28 8 31 13 9 15 -33 10 -45 -5z"/>
<path d="M10591 5244 c0 -11 3 -14 6 -6 3 7 2 16 -1 19 -3 4 -6 -2 -5 -13z"/>
<path d="M9705 4860 c-3 -6 1 -7 9 -4 18 7 21 14 7 14 -6 0 -13 -4 -16 -10z"/>
<path d="M7504 4577 c-44 -40 -102 -92 -130 -117 -27 -25 -43 -40 -34 -35 14
10 155 131 213 184 20 19 37 24 64 23 43 -3 39 7 -4 13 -25 3 -42 -7 -109 -68z"/>
<path d="M7600 4606 c-6 -8 -19 -12 -28 -9 -9 3 -14 2 -9 -2 4 -5 -3 -20 -15
-34 -22 -24 -22 -24 10 2 19 15 37 27 42 27 4 0 10 7 14 15 7 19 2 19 -14 1z"/>
<path d="M7495 4520 c-4 -6 -11 -8 -16 -4 -5 3 -8 1 -7 -4 2 -5 -17 -28 -42
-52 l-45 -42 51 41 c51 40 81 71 71 71 -3 0 -9 -5 -12 -10z"/>
<path d="M7359 4403 c-13 -16 -12 -17 4 -4 16 13 21 21 13 21 -2 0 -10 -8 -17
-17z"/>
<path d="M7247 4365 c-70 -52 -83 -64 -41 -40 31 17 114 85 104 84 -3 0 -31
-20 -63 -44z"/>
<path d="M7290 4353 c-25 -19 -80 -56 -123 -81 -43 -25 -81 -50 -84 -56 -15
-23 222 129 248 160 18 22 8 16 -41 -23z"/>
<path d="M7145 4296 c-11 -7 -44 -26 -73 -41 -29 -15 -51 -30 -48 -32 2 -3 13
0 24 6 11 6 22 8 26 6 3 -3 4 -2 1 2 -3 3 18 19 45 35 28 16 50 31 50 33 0 8
-4 6 -25 -9z"/>
<path d="M6960 4194 c-25 -14 -36 -22 -25 -19 11 4 32 9 46 12 14 2 26 11 26
19 0 8 -1 14 -1 14 -1 -1 -21 -12 -46 -26z"/>
<path d="M5752 4198 c3 -7 19 -16 36 -20 18 -5 32 -13 32 -19 0 -6 -10 -8 -22
-4 -18 5 -20 4 -8 -4 18 -13 77 -13 105 -1 16 7 13 9 -17 9 -21 1 -38 6 -38
11 0 6 -7 10 -16 10 -8 0 -13 4 -10 9 3 5 -3 11 -14 14 -11 3 -18 1 -14 -4 3
-5 0 -9 -5 -9 -6 0 -11 5 -11 10 0 6 -5 10 -11 10 -6 0 -9 -5 -7 -12z"/>
<path d="M7034 4194 c-18 -14 -18 -14 6 -3 31 14 36 19 24 19 -6 0 -19 -7 -30
-16z"/>
<path d="M6865 4154 l-30 -15 30 6 c17 4 34 11 40 16 13 13 -5 10 -40 -7z"/>
<path d="M6955 4155 c-25 -12 -26 -14 -5 -9 14 4 29 10 35 15 12 12 5 11 -30
-6z"/>
<path d="M6850 4114 l-35 -14 35 6 c40 7 76 24 50 23 -8 0 -31 -7 -50 -15z"/>
<path d="M5921 4116 c2 -2 22 -6 44 -10 29 -5 36 -4 25 3 -13 10 -79 16 -69 7z"/>
<path d="M6778 4113 c7 -3 16 -2 19 1 4 3 -2 6 -13 5 -11 0 -14 -3 -6 -6z"/>
<path d="M6111 4076 c2 -2 77 -7 167 -11 115 -5 162 -4 162 4 0 8 -52 11 -167
11 -91 0 -164 -2 -162 -4z"/>
<path d="M6673 4073 c-13 -2 -23 -8 -23 -13 0 -4 17 -4 38 0 20 5 48 10 62 13
15 3 9 4 -15 4 -22 0 -50 -2 -62 -4z"/>
<path d="M9079 3163 l-24 -28 28 24 c25 23 32 31 24 31 -2 0 -14 -12 -28 -27z"/>
<path d="M8939 3043 l-24 -28 28 24 c15 14 27 26 27 28 0 8 -8 1 -31 -24z"/>
<path d="M8764 2898 l-19 -23 23 19 c21 18 27 26 19 26 -2 0 -12 -10 -23 -22z"/>
<path d="M8719 2863 c-13 -16 -12 -17 4 -4 16 13 21 21 13 21 -2 0 -10 -8 -17
-17z"/>
<path d="M8055 2379 c-38 -28 -103 -69 -142 -91 -89 -49 -97 -62 -10 -16 80
42 255 164 225 157 -2 0 -34 -23 -73 -50z"/>
<path d="M7768 2206 c-78 -44 -88 -58 -13 -17 55 30 86 51 75 51 -3 0 -31 -15
-62 -34z"/>
<path d="M7664 2144 c-18 -14 -18 -15 4 -4 12 6 22 13 22 15 0 8 -5 6 -26 -11z"/>
<path d="M7583 2099 c-29 -17 -53 -33 -53 -36 0 -5 89 44 105 58 16 16 1 9
-52 -22z"/>
<path d="M7468 2034 c-27 -13 -48 -27 -48 -29 0 -3 23 6 50 20 28 14 50 28 50
30 0 7 1 7 -52 -21z"/>
<path d="M6118 2023 c7 -3 16 -2 19 1 4 3 -2 6 -13 5 -11 0 -14 -3 -6 -6z"/>
<path d="M7229 1915 c-95 -47 -185 -86 -199 -86 -22 -2 -23 -2 -3 -6 12 -2 53
9 92 26 39 17 71 27 71 23 0 -4 4 -2 8 5 4 7 54 35 110 63 86 43 114 60 99 60
-2 0 -82 -38 -178 -85z"/>
<path d="M6348 1973 c7 -3 16 -2 19 1 4 3 -2 6 -13 5 -11 0 -14 -3 -6 -6z"/>
<path d="M6428 1953 c6 -2 18 -2 25 0 6 3 1 5 -13 5 -14 0 -19 -2 -12 -5z"/>
<path d="M6478 1943 c7 -3 16 -2 19 1 4 3 -2 6 -13 5 -11 0 -14 -3 -6 -6z"/>
<path d="M6888 1833 c7 -3 16 -2 19 1 4 3 -2 6 -13 5 -11 0 -14 -3 -6 -6z"/>
<path d="M6938 1823 c6 -2 18 -2 25 0 6 3 1 5 -13 5 -14 0 -19 -2 -12 -5z"/>
<path d="M11971 675 c-7 -20 -43 -100 -81 -178 -37 -78 -86 -186 -109 -239
-23 -54 -59 -131 -81 -173 -22 -42 -40 -78 -40 -80 0 -3 77 -5 170 -5 l170 0
0 355 c0 195 -4 355 -8 355 -4 0 -14 -16 -21 -35z"/>
</g>
</svg>
